<?xml version="1.0" encoding="UTF-8"?>
<svg width="320px" height="120px" viewBox="0 0 320 120" version="1.1" xmlns="http://www.w3.org/2000/svg" xmlns:xlink="http://www.w3.org/1999/xlink">
    <!-- Generator: Sketch 43.2 (39069) - http://www.bohemiancoding.com/sketch -->
    <title>Almost Final 03 B</title>
    <desc>Created with Sketch.</desc>
    <defs></defs>
    <g id="Logo" stroke="none" stroke-width="1" fill="none" fill-rule="evenodd">
        <g id="Almost-Final-03-B">
            <g id="Text" transform="translate(130.000000, 21.000000)">
                <path d="M15.7416149,36.6708075 C10.9714047,36.6708075 7.15529381,35.0211345 4.2931677,31.7217391 C1.43104159,28.4223438 0,24.0497167 0,18.6037267 C0,12.958978 1.43104159,8.44722186 4.2931677,5.06832298 C7.15529381,1.6894241 10.9714047,0 15.7416149,0 C20.5118251,0 24.327936,1.6894241 27.1900621,5.06832298 C30.0521882,8.44722186 31.4832298,12.958978 31.4832298,18.6037267 C31.4832298,24.0497167 30.0521882,28.4223438 27.1900621,31.7217391 C24.327936,35.0211345 20.5118251,36.6708075 15.7416149,36.6708075 Z M15.7416149,34.4645963 C19.7962936,34.4645963 23.0360127,33.0136791 25.4608696,30.1118012 C27.8857264,27.2496751 29.0981366,23.4136886 29.0981366,18.6037267 C29.0981366,13.6745095 27.8857264,9.71926957 25.4608696,6.7378882 C23.0360127,3.75650683 19.7962936,2.26583851 15.7416149,2.26583851 C11.6869362,2.26583851 8.44721709,3.75650683 6.02236025,6.7378882 C3.5975034,9.71926957 2.38509317,13.6745095 2.38509317,18.6037267 C2.38509317,23.4136886 3.5975034,27.2496751 6.02236025,30.1118012 C8.44721709,33.0136791 11.6869362,34.4645963 15.7416149,34.4645963 Z M51.3987578,37.1478261 C46.9068098,37.1478261 43.0906989,35.3391485 39.9503106,31.7217391 C36.7701704,28.1043297 35.1801242,23.7317027 35.1801242,18.6037267 C35.1801242,13.4757508 36.7701704,9.0832481 39.9503106,5.42608696 C43.0906989,1.80867757 46.9068098,0 51.3987578,0 C55.0956707,0 58.2161363,0.993778882 60.7602484,2.98136646 C63.3043605,4.92920229 64.8745312,7.55277853 65.4708075,10.8521739 L63.0857143,10.8521739 C62.648445,8.38756532 61.3167813,6.34038082 59.0906832,4.71055901 C56.9043369,3.08073719 54.3403874,2.26583851 51.3987578,2.26583851 C47.5825896,2.26583851 44.3229949,3.85588472 41.6198758,7.03602484 C38.9167567,10.2559167 37.5652174,14.1117788 37.5652174,18.6037267 C37.5652174,23.0956746 38.9167567,26.9515367 41.6198758,30.1714286 C44.3229949,33.3515687 47.5825896,34.9416149 51.3987578,34.9416149 C54.6584014,34.9416149 57.3416044,33.9875872 59.4484472,32.0795031 C61.5950418,30.171419 62.807452,27.6273451 63.0857143,24.447205 L65.4708075,24.447205 C65.1527934,28.3031249 63.7018763,31.3838394 61.1180124,33.689441 C58.5739003,35.9950426 55.3341812,37.1478261 51.3987578,37.1478261 Z M93.4956522,36.2534161 L70.4198758,36.2534161 L70.4198758,0.894409938 L93.4956522,0.894409938 L93.4956522,3.21987578 L72.8049689,3.21987578 L72.8049689,16.8149068 L91.7068323,16.8149068 L91.7068323,19.021118 L72.8049689,19.021118 L72.8049689,33.9875776 L93.4956522,33.9875776 L93.4956522,36.2534161 Z M97.3714286,36.2534161 L94.6881988,36.2534161 L108.700621,0.894409938 L111.681988,0.894409938 L125.515528,36.2534161 L122.772671,36.2534161 L118.240994,24.9242236 L101.903106,24.9242236 L97.3714286,36.2534161 Z M102.618634,22.6583851 L117.346584,22.6583851 L110.07205,3.63726708 L102.618634,22.6583851 Z M132.193789,36.2534161 L129.808696,36.2534161 L129.808696,0.894409938 L133.088199,0.894409938 L154.434783,33.331677 L154.434783,0.894409938 L156.819876,0.894409938 L156.819876,36.2534161 L153.540373,36.2534161 L132.193789,4.2931677 L132.193789,36.2534161 Z" id="OCEAN" fill="#6DBDDE"></path>
                <path d="M12.3428571,86.1478261 C8.92420651,86.1478261 6.02237217,84.9950426 3.63726708,82.689441 C1.21241024,80.4235912 0,77.6608859 0,74.4012422 L2.38509317,74.4012422 C2.38509317,77.0248578 3.35899647,79.2707981 5.3068323,81.1391304 C7.25466812,83.0074628 9.59998629,83.9416149 12.3428571,83.9416149 C15.3242385,83.9416149 17.888188,83.1465918 20.0347826,81.5565217 C22.1416254,79.9664517 23.1950311,78.0385206 23.1950311,75.7726708 C23.1950311,73.824835 22.2608789,72.1950376 20.3925466,70.8832298 C18.563966,69.571422 16.0993944,68.7763989 12.9987578,68.4981366 C9.22234137,68.1801226 6.20125357,67.1068414 3.93540373,65.2782609 C1.66955389,63.4496803 0.536645963,61.20374 0.536645963,58.5403727 C0.536645963,55.9167571 1.68942947,53.6708168 3.99503106,51.8024845 C6.30063265,49.9341521 9.08321352,49 12.3428571,49 C15.8410113,49 18.8422235,49.9739033 21.3465839,51.9217391 C23.8111924,53.869575 25.0434783,56.2148931 25.0434783,58.957764 L22.6583851,58.957764 C22.6583851,56.8509211 21.6447306,55.0422436 19.6173913,53.531677 C17.6298037,52.0211105 15.2049833,51.2658385 12.3428571,51.2658385 C9.75899329,51.2658385 7.5329286,51.9813593 5.66459627,53.4124224 C3.8360157,54.8037337 2.92173913,56.5130333 2.92173913,58.5403727 C2.92173913,60.5279602 3.87576686,62.1975088 5.78385093,63.5490683 C7.73168676,64.9006279 10.2956363,65.7155266 13.4757764,65.9937888 C17.1329375,66.3118028 20.074523,67.3652084 22.3006211,69.1540373 C24.4869675,70.9428661 25.5801242,73.1490552 25.5801242,75.7726708 C25.5801242,78.6347969 24.2882117,81.079493 21.7043478,83.1068323 C19.120484,85.1341716 16.0000183,86.1478261 12.3428571,86.1478261 Z M44.7204969,85.6708075 C39.9502867,85.6708075 36.1341758,84.0211345 33.2720497,80.7217391 C30.4099236,77.4223438 28.978882,73.0497167 28.978882,67.6037267 C28.978882,61.958978 30.4099236,57.4472219 33.2720497,54.068323 C36.1341758,50.6894241 39.9502867,49 44.7204969,49 C49.4907071,49 53.306818,50.6894241 56.1689441,54.068323 C59.0310702,57.4472219 60.4621118,61.958978 60.4621118,67.6037267 C60.4621118,73.0497167 59.0310702,77.4223438 56.1689441,80.7217391 C53.306818,84.0211345 49.4907071,85.6708075 44.7204969,85.6708075 Z M44.7204969,83.4645963 C48.7751756,83.4645963 52.0148947,82.0136791 54.4397516,79.1118012 C56.8646084,76.2496751 58.0770186,72.4136886 58.0770186,67.6037267 C58.0770186,62.6745095 56.8646084,58.7192696 54.4397516,55.7378882 C52.0148947,52.7565068 48.7751756,51.2658385 44.7204969,51.2658385 C40.6658182,51.2658385 37.4260991,52.7565068 35.0012422,55.7378882 C32.5763854,58.7192696 31.3639752,62.6745095 31.3639752,67.6037267 C31.3639752,72.4136886 32.5763854,76.2496751 35.0012422,79.1118012 C37.4260991,82.0136791 40.6658182,83.4645963 44.7204969,83.4645963 Z M78.8869565,86.1478261 C75.2297954,86.1478261 72.0894541,84.9552914 69.4658385,82.5701863 C66.8819747,80.1850812 65.5900621,77.3031225 65.5900621,73.9242236 L65.5900621,49.8944099 L67.9751553,49.8944099 L67.9751553,73.9242236 C67.9751553,76.7068462 69.0484365,79.07204 71.1950311,81.0198758 C73.3018739,82.9677116 75.8658234,83.9416149 78.8869565,83.9416149 C81.7490826,83.9416149 84.2136543,82.9677116 86.2807453,81.0198758 C88.3080847,79.07204 89.3217391,76.7068462 89.3217391,73.9242236 L89.3217391,49.8944099 L91.7068323,49.8944099 L91.7068323,73.9242236 C91.7068323,77.3031225 90.4546709,80.1850812 87.9503106,82.5701863 C85.4459502,84.9552914 82.4248624,86.1478261 78.8869565,86.1478261 Z M101.12795,85.2534161 L98.7428571,85.2534161 L98.7428571,49.8944099 L115.617391,49.8944099 C118.042248,49.8944099 120.109308,50.8086865 121.818634,52.6372671 C123.527959,54.4260959 124.382609,56.6124094 124.382609,59.1962733 C124.382609,61.4621231 123.865844,63.4298053 122.832298,65.0993789 C121.759001,66.7689524 120.427337,67.7428558 118.837267,68.021118 C120.308082,68.4186355 121.500617,69.6707969 122.414907,71.7776398 C123.329197,73.8844826 123.786335,76.4285565 123.786335,79.4099379 C123.786335,81.0795115 123.826087,82.3316728 123.90559,83.1664596 C123.985094,84.1602534 124.144098,84.8558986 124.382609,85.2534161 L121.997516,85.2534161 C121.599998,84.7763951 121.341616,83.9018697 121.22236,82.6298137 L121.043478,77.5614907 C121.043478,75.1763856 120.467087,73.1292011 119.314286,71.4198758 C118.201237,69.7503022 116.829822,68.915528 115.2,68.915528 L101.12795,68.915528 L101.12795,85.2534161 Z M101.12795,66.7093168 L115.2,66.7093168 C117.068332,66.7093168 118.678254,65.993796 120.029814,64.5627329 C121.341621,63.1714216 121.997516,61.4621219 121.997516,59.4347826 C121.997516,57.447195 121.341621,55.7378954 120.029814,54.3068323 C118.678254,52.915521 117.068332,52.2198758 115.2,52.2198758 L101.12795,52.2198758 L101.12795,66.7093168 Z M144.834783,86.1478261 C140.342835,86.1478261 136.526724,84.3391485 133.386335,80.7217391 C130.206195,77.1043297 128.616149,72.7317027 128.616149,67.6037267 C128.616149,62.4757508 130.206195,58.0832481 133.386335,54.426087 C136.526724,50.8086776 140.342835,49 144.834783,49 C148.531696,49 151.652161,49.9937789 154.196273,51.9813665 C156.740385,53.9292023 158.310556,56.5527785 158.906832,59.8521739 L156.521739,59.8521739 C156.08447,57.3875653 154.752806,55.3403808 152.526708,53.710559 C150.340362,52.0807372 147.776412,51.2658385 144.834783,51.2658385 C141.018614,51.2658385 137.75902,52.8558847 135.055901,56.0360248 C132.352782,59.2559167 131.001242,63.1117788 131.001242,67.6037267 C131.001242,72.0956746 132.352782,75.9515367 135.055901,79.1714286 C137.75902,82.3515687 141.018614,83.9416149 144.834783,83.9416149 C148.094426,83.9416149 150.777629,82.9875872 152.884472,81.0795031 C155.031067,79.171419 156.243477,76.6273451 156.521739,73.447205 L158.906832,73.447205 C158.588818,77.3031249 157.137901,80.3838394 154.554037,82.689441 C152.009925,84.9950426 148.770206,86.1478261 144.834783,86.1478261 Z M186.931677,85.2534161 L163.855901,85.2534161 L163.855901,49.8944099 L186.931677,49.8944099 L186.931677,52.2198758 L166.240994,52.2198758 L166.240994,65.8149068 L185.142857,65.8149068 L185.142857,68.021118 L166.240994,68.021118 L166.240994,82.9875776 L186.931677,82.9875776 L186.931677,85.2534161 Z" id="SOURCE" fill="#5E9201"></path>
            </g>
            <g id="Mark" fill-rule="nonzero">
                <g id="noun_702568_cc">
                    <g>
                        <g id="Group">
                            <g transform="translate(60.000000, 60.000000) scale(-1, 1) translate(-60.000000, -60.000000) " id="Shape">
                                <path d="M39.5939086,92.7242496 C30.0456853,87.0814688 19.6598985,83.2642936 6.09137056,86.4176123 C8.43654822,91.0646082 11.284264,95.3796759 14.6345178,99.1968511 C24.6852792,99.8607076 32.5583756,96.8733531 39.5939086,92.7242496 Z" fill="#B2D4E2"></path>
                                <path d="M49.3512172,99.4045822 C46.516729,97.4290026 43.8489755,95.6180546 40.8477528,93.8071066 C34.178369,97.9228975 26.6753122,101.050899 17.0047056,101.050899 L15.8375635,101.050899 C23.6740894,109.28248 34.0116344,115.373851 45.5163215,118.172589 C51.8522361,114.715324 57.1877432,110.928797 61.5228426,107.471532 C57.5212123,105.002058 53.3528475,102.20332 49.3512172,99.4045822 Z" fill="#B2D4E2"></path>
                                <path d="M63.3427644,108.426396 C58.9939253,111.898477 54.143297,115.535896 48.1218274,118.84264 C51.9688774,119.503988 55.8159274,120 59.8302405,120 C70.3678123,120 80.2363319,117.354605 88.9340102,112.559826 C86.5923275,113.055838 84.2506449,113.386512 82.0762253,113.386512 C75.2184405,113.386512 69.0297079,111.402466 63.3427644,108.426396 Z" fill="#B2D4E2"></path>
                                <path d="M68.1883998,104.581484 C67.1848215,105.411232 66.1812432,106.24098 65.177665,107.070728 C73.5408172,111.219467 82.5730216,113.210862 93.9469085,109.559971 C98.4630107,106.572879 102.477324,102.921988 105.989848,98.7732488 C87.925439,87.9865262 80.2313389,94.4585598 68.1883998,104.581484 Z" fill="#5E9201"></path>
                                <path d="M106.64467,98.071066 C109.827411,94.1482234 112.340102,89.884264 114.517766,85.2791878 C107.147208,89.5431472 100.446701,91.7604061 94.4162437,92.4426396 C97.9340102,93.4659898 102.121827,95.1715736 106.64467,98.071066 Z" fill="#B2D4E2"></path>
                                <path d="M33.5025381,63.165548 C23.8829974,58.0103827 13.2683319,55.3496523 0,58.841861 L0,60.1722262 C0,67.6555306 1.49268734,74.9725394 3.98049957,81.6243655 C11.9414987,78.2984524 19.5707896,72.9769915 27.3659346,67.3229393 C29.3561843,65.9925741 31.3464341,64.4959132 33.5025381,63.165548 Z" fill="#5E9201"></path>
                                <path d="M41.4213198,67.8321159 C39.4277803,66.4850811 37.4342409,65.1380463 35.4407014,63.9593909 C33.1149054,65.474805 30.9552377,67.1585985 28.6294416,68.6740126 C20.9875404,74.2305311 13.0133826,79.7870496 4.87309645,83.323016 C5.03922473,83.828154 5.20535302,84.1649127 5.37148131,84.6700508 C14.8407937,80.2921877 22.9810798,76.4194627 30.2907245,73.0518757 C34.2778034,71.0313235 37.9326257,69.34753 41.4213198,67.8321159 Z" fill-opacity="0.6" fill="#5E9201"></path>
                                <path d="M0,57.082187 C14,53.3994653 25.1666667,56.5799977 35.1666667,62.1040803 C52.8333333,50.2189328 71.5,41.1795249 96.5,56.7473941 C103,58.588755 110.333333,61.601891 119.833333,65.786802 C120,63.9454412 120,62.1040803 120,60.2627194 C120,26.9508273 93,0 60,0 C28,0 1.66666667,25.2768629 0,57.082187 Z" fill="#6DBDDE"></path>
                                <path d="M36.5482234,62.9329091 C38.7191043,64.1206245 40.7229944,65.6476871 42.8938754,67.0050761 C65.771621,56.3156375 76.6260259,52.5828177 90.1522843,55.1279221 C68.7774562,44.2688099 52.2453627,52.2434704 36.5482234,62.9329091 Z" fill="#BFE2EF"></path>
                                <path d="M9.74619289,84.3194683 C22.4731802,82.3211482 32.3533414,86.4843151 41.5636611,91.9796954 C44.7454079,89.9813753 47.7596944,87.6500018 50.7739808,85.485155 C53.2858862,83.6533616 55.7977916,81.8215681 58.4771574,79.9897747 C56.3001727,78.4910346 54.123188,76.8257678 51.9462034,75.160501 C49.0993773,72.9956542 46.2525512,70.8308074 43.2382647,68.8324873 C39.5541368,70.4977541 35.5350882,72.3295475 31.1811188,74.3278677 C24.8176252,77.3253478 17.7842901,80.6558814 9.74619289,84.3194683 Z" fill="#5E9201"></path>
                                <path d="M95.5343856,58.0614546 C79.5132466,53.5214632 69.3331479,56.5481241 44.4670051,67.9821764 C47.1371949,69.8318026 49.8073847,71.8495765 52.3106877,73.8673504 C54.6471038,75.7169765 56.9835199,77.3984548 59.319936,79.0799331 C72.1702246,71.0088374 87.5238161,66.8051417 114.559488,83.4517766 C114.893262,83.2836288 115.227036,83.115481 115.560809,82.7791853 C116.228357,80.9295592 116.895904,79.0799331 117.563452,77.0621592 C109.719769,68.6547678 102.376747,62.4332981 95.5343856,58.0614546 Z" fill="#B2D4E2"></path>
                                <path d="M118.491128,74.9238579 C119.161738,72.4136777 119.664695,69.7361522 120,67.0586267 C112.790947,63.8790651 106.923113,61.3688849 101.725888,59.6954315 C106.923113,63.7117198 112.623294,68.7320801 118.491128,74.9238579 Z" fill="#BFE2EF"></path>
                                <path d="M112.690355,84.5438929 C87.4658337,69.0270796 73.1940648,72.5689609 60.9137056,80.3273675 C75.3514252,90.4470284 90.4529481,97.024808 112.690355,84.5438929 Z" fill="#BFE2EF"></path>
                                <path d="M59.5522479,81.0152284 C56.7055635,82.8426396 54.0263312,84.836179 51.3470989,86.8297185 C48.5004146,88.9893862 45.6537303,90.9829257 42.6395939,92.9764652 C45.3188262,94.637748 47.8306065,96.4651592 50.5098388,98.2925704 C54.8635913,101.28288 59.0498918,104.10706 63.4036443,106.598985 C64.5758084,105.602215 65.9154246,104.605445 66.9201367,103.608676 C73.2833134,98.2925704 78.474326,93.9732349 84.6700508,92.4780803 C75.2927377,90.9829257 67.2550408,86.4974619 59.5522479,81.0152284 Z" fill="#9EBE67"></path>
                            </g>
                        </g>
                    </g>
                </g>
            </g>
        </g>
    </g>
</svg>