<svg height="637" viewBox="0 0 1200 637" width="1200" xmlns="http://www.w3.org/2000/svg" xmlns:xlink="http://www.w3.org/1999/xlink"><defs><path id="a" d="m12 17.6851354 7.4156436 4.3148646-1.9616436-8.1391979 6.546-5.47278648-8.6297228-.71471354-3.3702772-7.67330208-3.37087129 7.67330208-8.62912871.71471354 6.54605941 5.47278648-1.96223763 8.1391979z"/><filter id="b" height="109.1%" width="108.3%" x="-2.1%" y="-2.3%"><feOffset dx="1" dy="1" in="SourceAlpha" result="shadowOffsetOuter1"/><feColorMatrix in="shadowOffsetOuter1" type="matrix" values="0 0 0 0 1   0 0 0 0 1   0 0 0 0 1  0 0 0 1 0"/></filter><path id="c" d="m12 17.6851354 7.4156436 4.3148646-1.9616436-8.1391979 6.546-5.47278648-8.6297228-.71471354-3.3702772-7.67330208-3.37087129 7.67330208-8.62912871.71471354 6.54605941 5.47278648-1.96223763 8.1391979z"/><filter id="d" height="109.1%" width="108.3%" x="-2.1%" y="-2.3%"><feOffset dx="1" dy="1" in="SourceAlpha" result="shadowOffsetOuter1"/><feColorMatrix in="shadowOffsetOuter1" type="matrix" values="0 0 0 0 1   0 0 0 0 1   0 0 0 0 1  0 0 0 1 0"/></filter><path id="e" d="m12 17.6851354 7.4156436 4.3148646-1.9616436-8.1391979 6.546-5.47278648-8.6297228-.71471354-3.3702772-7.67330208-3.37087129 7.67330208-8.62912871.71471354 6.54605941 5.47278648-1.96223763 8.1391979z"/><filter id="f" height="109.1%" width="108.3%" x="-2.1%" y="-2.3%"><feOffset dx="1" dy="1" in="SourceAlpha" result="shadowOffsetOuter1"/><feColorMatrix in="shadowOffsetOuter1" type="matrix" values="0 0 0 0 1   0 0 0 0 1   0 0 0 0 1  0 0 0 1 0"/></filter><path id="g" d="m12 17.6851354 7.4156436 4.3148646-1.9616436-8.1391979 6.546-5.47278648-8.6297228-.71471354-3.3702772-7.67330208-3.37087129 7.67330208-8.62912871.71471354 6.54605941 5.47278648-1.96223763 8.1391979z"/><filter id="h" height="109.1%" width="108.3%" x="-2.1%" y="-2.3%"><feOffset dx="1" dy="1" in="SourceAlpha" result="shadowOffsetOuter1"/><feColorMatrix in="shadowOffsetOuter1" type="matrix" values="0 0 0 0 1   0 0 0 0 1   0 0 0 0 1  0 0 0 1 0"/></filter><path id="i" d="m12 17.6851354 7.4156436 4.3148646-1.9616436-8.1391979 6.546-5.47278648-8.6297228-.71471354-3.3702772-7.67330208-3.37087129 7.67330208-8.62912871.71471354 6.54605941 5.47278648-1.96223763 8.1391979z"/><filter id="j" height="109.1%" width="108.3%" x="-2.1%" y="-2.3%"><feOffset dx="1" dy="1" in="SourceAlpha" result="shadowOffsetOuter1"/><feColorMatrix in="shadowOffsetOuter1" type="matrix" values="0 0 0 0 1   0 0 0 0 1   0 0 0 0 1  0 0 0 1 0"/></filter><path id="k" d="m12 17.6851354 7.4156436 4.3148646-1.9616436-8.1391979 6.546-5.47278648-8.6297228-.71471354-3.3702772-7.67330208-3.37087129 7.67330208-8.62912871.71471354 6.54605941 5.47278648-1.96223763 8.1391979z"/><filter id="l" height="109.1%" width="108.3%" x="-2.1%" y="-2.3%"><feOffset dx="1" dy="1" in="SourceAlpha" result="shadowOffsetOuter1"/><feColorMatrix in="shadowOffsetOuter1" type="matrix" values="0 0 0 0 1   0 0 0 0 1   0 0 0 0 1  0 0 0 1 0"/></filter><path id="m" d="m12 17.6851354 7.4156436 4.3148646-1.9616436-8.1391979 6.546-5.47278648-8.6297228-.71471354-3.3702772-7.67330208-3.37087129 7.67330208-8.62912871.71471354 6.54605941 5.47278648-1.96223763 8.1391979z"/><filter id="n" height="109.1%" width="108.3%" x="-2.1%" y="-2.3%"><feOffset dx="1" dy="1" in="SourceAlpha" result="shadowOffsetOuter1"/><feColorMatrix in="shadowOffsetOuter1" type="matrix" values="0 0 0 0 1   0 0 0 0 1   0 0 0 0 1  0 0 0 1 0"/></filter><path id="o" d="m12 17.6851354 7.4156436 4.3148646-1.9616436-8.1391979 6.546-5.47278648-8.6297228-.71471354-3.3702772-7.67330208-3.37087129 7.67330208-8.62912871.71471354 6.54605941 5.47278648-1.96223763 8.1391979z"/><filter id="p" height="109.1%" width="108.3%" x="-2.1%" y="-2.3%"><feOffset dx="1" dy="1" in="SourceAlpha" result="shadowOffsetOuter1"/><feColorMatrix in="shadowOffsetOuter1" type="matrix" values="0 0 0 0 1   0 0 0 0 1   0 0 0 0 1  0 0 0 1 0"/></filter><path id="q" d="m12 17.6851354 7.4156436 4.3148646-1.9616436-8.1391979 6.546-5.47278648-8.6297228-.71471354-3.3702772-7.67330208-3.37087129 7.67330208-8.62912871.71471354 6.54605941 5.47278648-1.96223763 8.1391979z"/><filter id="r" height="109.1%" width="108.3%" x="-2.1%" y="-2.3%"><feOffset dx="1" dy="1" in="SourceAlpha" result="shadowOffsetOuter1"/><feColorMatrix in="shadowOffsetOuter1" type="matrix" values="0 0 0 0 1   0 0 0 0 1   0 0 0 0 1  0 0 0 1 0"/></filter><path id="s" d="m12 17.6851354 7.4156436 4.3148646-1.9616436-8.1391979 6.546-5.47278648-8.6297228-.71471354-3.3702772-7.67330208-3.37087129 7.67330208-8.62912871.71471354 6.54605941 5.47278648-1.96223763 8.1391979z"/><filter id="t" height="109.1%" width="108.3%" x="-2.1%" y="-2.3%"><feOffset dx="1" dy="1" in="SourceAlpha" result="shadowOffsetOuter1"/><feColorMatrix in="shadowOffsetOuter1" type="matrix" values="0 0 0 0 1   0 0 0 0 1   0 0 0 0 1  0 0 0 1 0"/></filter><path id="u" d="m12 17.6851354 7.4156436 4.3148646-1.9616436-8.1391979 6.546-5.47278648-8.6297228-.71471354-3.3702772-7.67330208-3.37087129 7.67330208-8.62912871.71471354 6.54605941 5.47278648-1.96223763 8.1391979z"/><filter id="v" height="109.1%" width="108.3%" x="-2.1%" y="-2.3%"><feOffset dx="1" dy="1" in="SourceAlpha" result="shadowOffsetOuter1"/><feColorMatrix in="shadowOffsetOuter1" type="matrix" values="0 0 0 0 1   0 0 0 0 1   0 0 0 0 1  0 0 0 1 0"/></filter><path id="w" d="m12 17.6851354 7.4156436 4.3148646-1.9616436-8.1391979 6.546-5.47278648-8.6297228-.71471354-3.3702772-7.67330208-3.37087129 7.67330208-8.62912871.71471354 6.54605941 5.47278648-1.96223763 8.1391979z"/><filter id="x" height="109.1%" width="108.3%" x="-2.1%" y="-2.3%"><feOffset dx="1" dy="1" in="SourceAlpha" result="shadowOffsetOuter1"/><feColorMatrix in="shadowOffsetOuter1" type="matrix" values="0 0 0 0 1   0 0 0 0 1   0 0 0 0 1  0 0 0 1 0"/></filter><path id="y" d="m12 17.6851354 7.4156436 4.3148646-1.9616436-8.1391979 6.546-5.47278648-8.6297228-.71471354-3.3702772-7.67330208-3.37087129 7.67330208-8.62912871.71471354 6.54605941 5.47278648-1.96223763 8.1391979z"/><filter id="z" height="109.1%" width="108.3%" x="-2.1%" y="-2.3%"><feOffset dx="1" dy="1" in="SourceAlpha" result="shadowOffsetOuter1"/><feColorMatrix in="shadowOffsetOuter1" type="matrix" values="0 0 0 0 1   0 0 0 0 1   0 0 0 0 1  0 0 0 1 0"/></filter><path id="A" d="m12 17.6851354 7.4156436 4.3148646-1.9616436-8.1391979 6.546-5.47278648-8.6297228-.71471354-3.3702772-7.67330208-3.37087129 7.67330208-8.62912871.71471354 6.54605941 5.47278648-1.96223763 8.1391979z"/><filter id="B" height="109.1%" width="108.3%" x="-2.1%" y="-2.3%"><feOffset dx="1" dy="1" in="SourceAlpha" result="shadowOffsetOuter1"/><feColorMatrix in="shadowOffsetOuter1" type="matrix" values="0 0 0 0 1   0 0 0 0 1   0 0 0 0 1  0 0 0 1 0"/></filter><path id="C" d="m12 17.6851354 7.4156436 4.3148646-1.9616436-8.1391979 6.546-5.47278648-8.6297228-.71471354-3.3702772-7.67330208-3.37087129 7.67330208-8.62912871.71471354 6.54605941 5.47278648-1.96223763 8.1391979z"/><filter id="D" height="109.1%" width="108.3%" x="-2.1%" y="-2.3%"><feOffset dx="1" dy="1" in="SourceAlpha" result="shadowOffsetOuter1"/><feColorMatrix in="shadowOffsetOuter1" type="matrix" values="0 0 0 0 1   0 0 0 0 1   0 0 0 0 1  0 0 0 1 0"/></filter><path id="E" d="m12 17.6851354 7.4156436 4.3148646-1.9616436-8.1391979 6.546-5.47278648-8.6297228-.71471354-3.3702772-7.67330208-3.37087129 7.67330208-8.62912871.71471354 6.54605941 5.47278648-1.96223763 8.1391979z"/><filter id="F" height="109.1%" width="108.3%" x="-2.1%" y="-2.3%"><feOffset dx="1" dy="1" in="SourceAlpha" result="shadowOffsetOuter1"/><feColorMatrix in="shadowOffsetOuter1" type="matrix" values="0 0 0 0 1   0 0 0 0 1   0 0 0 0 1  0 0 0 1 0"/></filter><path id="G" d="m12 17.6851354 7.4156436 4.3148646-1.9616436-8.1391979 6.546-5.47278648-8.6297228-.71471354-3.3702772-7.67330208-3.37087129 7.67330208-8.62912871.71471354 6.54605941 5.47278648-1.96223763 8.1391979z"/><filter id="H" height="109.1%" width="108.3%" x="-2.1%" y="-2.3%"><feOffset dx="1" dy="1" in="SourceAlpha" result="shadowOffsetOuter1"/><feColorMatrix in="shadowOffsetOuter1" type="matrix" values="0 0 0 0 1   0 0 0 0 1   0 0 0 0 1  0 0 0 1 0"/></filter><path id="I" d="m12 17.6851354 7.4156436 4.3148646-1.9616436-8.1391979 6.546-5.47278648-8.6297228-.71471354-3.3702772-7.67330208-3.37087129 7.67330208-8.62912871.71471354 6.54605941 5.47278648-1.96223763 8.1391979z"/><filter id="J" height="109.1%" width="108.3%" x="-2.1%" y="-2.3%"><feOffset dx="1" dy="1" in="SourceAlpha" result="shadowOffsetOuter1"/><feColorMatrix in="shadowOffsetOuter1" type="matrix" values="0 0 0 0 1   0 0 0 0 1   0 0 0 0 1  0 0 0 1 0"/></filter><path id="K" d="m12 17.6851354 7.4156436 4.3148646-1.9616436-8.1391979 6.546-5.47278648-8.6297228-.71471354-3.3702772-7.67330208-3.37087129 7.67330208-8.62912871.71471354 6.54605941 5.47278648-1.96223763 8.1391979z"/><filter id="L" height="109.1%" width="108.3%" x="-2.1%" y="-2.3%"><feOffset dx="1" dy="1" in="SourceAlpha" result="shadowOffsetOuter1"/><feColorMatrix in="shadowOffsetOuter1" type="matrix" values="0 0 0 0 1   0 0 0 0 1   0 0 0 0 1  0 0 0 1 0"/></filter><path id="M" d="m12 17.6851354 7.4156436 4.3148646-1.9616436-8.1391979 6.546-5.47278648-8.6297228-.71471354-3.3702772-7.67330208-3.37087129 7.67330208-8.62912871.71471354 6.54605941 5.47278648-1.96223763 8.1391979z"/><filter id="N" height="109.1%" width="108.3%" x="-2.1%" y="-2.3%"><feOffset dx="1" dy="1" in="SourceAlpha" result="shadowOffsetOuter1"/><feColorMatrix in="shadowOffsetOuter1" type="matrix" values="0 0 0 0 1   0 0 0 0 1   0 0 0 0 1  0 0 0 1 0"/></filter><path id="O" d="m12 17.6851354 7.4156436 4.3148646-1.9616436-8.1391979 6.546-5.47278648-8.6297228-.71471354-3.3702772-7.67330208-3.37087129 7.67330208-8.62912871.71471354 6.54605941 5.47278648-1.96223763 8.1391979z"/><filter id="P" height="109.1%" width="108.3%" x="-2.1%" y="-2.3%"><feOffset dx="1" dy="1" in="SourceAlpha" result="shadowOffsetOuter1"/><feColorMatrix in="shadowOffsetOuter1" type="matrix" values="0 0 0 0 1   0 0 0 0 1   0 0 0 0 1  0 0 0 1 0"/></filter><path id="Q" d="m12 17.6851354 7.4156436 4.3148646-1.9616436-8.1391979 6.546-5.47278648-8.6297228-.71471354-3.3702772-7.67330208-3.37087129 7.67330208-8.62912871.71471354 6.54605941 5.47278648-1.96223763 8.1391979z"/><filter id="R" height="109.1%" width="108.3%" x="-2.1%" y="-2.3%"><feOffset dx="1" dy="1" in="SourceAlpha" result="shadowOffsetOuter1"/><feColorMatrix in="shadowOffsetOuter1" type="matrix" values="0 0 0 0 1   0 0 0 0 1   0 0 0 0 1  0 0 0 1 0"/></filter><path id="S" d="m12 17.6851354 7.4156436 4.3148646-1.9616436-8.1391979 6.546-5.47278648-8.6297228-.71471354-3.3702772-7.67330208-3.37087129 7.67330208-8.62912871.71471354 6.54605941 5.47278648-1.96223763 8.1391979z"/><filter id="T" height="109.1%" width="108.3%" x="-2.1%" y="-2.3%"><feOffset dx="1" dy="1" in="SourceAlpha" result="shadowOffsetOuter1"/><feColorMatrix in="shadowOffsetOuter1" type="matrix" values="0 0 0 0 1   0 0 0 0 1   0 0 0 0 1  0 0 0 1 0"/></filter><path id="U" d="m12 17.6851354 7.4156436 4.3148646-1.9616436-8.1391979 6.546-5.47278648-8.6297228-.71471354-3.3702772-7.67330208-3.37087129 7.67330208-8.62912871.71471354 6.54605941 5.47278648-1.96223763 8.1391979z"/><filter id="V" height="109.1%" width="108.3%" x="-2.1%" y="-2.3%"><feOffset dx="1" dy="1" in="SourceAlpha" result="shadowOffsetOuter1"/><feColorMatrix in="shadowOffsetOuter1" type="matrix" values="0 0 0 0 1   0 0 0 0 1   0 0 0 0 1  0 0 0 1 0"/></filter><path id="W" d="m12 17.6851354 7.4156436 4.3148646-1.9616436-8.1391979 6.546-5.47278648-8.6297228-.71471354-3.3702772-7.67330208-3.37087129 7.67330208-8.62912871.71471354 6.54605941 5.47278648-1.96223763 8.1391979z"/><filter id="X" height="109.1%" width="108.3%" x="-2.1%" y="-2.3%"><feOffset dx="1" dy="1" in="SourceAlpha" result="shadowOffsetOuter1"/><feColorMatrix in="shadowOffsetOuter1" type="matrix" values="0 0 0 0 1   0 0 0 0 1   0 0 0 0 1  0 0 0 1 0"/></filter><path id="Y" d="m12 17.6851354 7.4156436 4.3148646-1.9616436-8.1391979 6.546-5.47278648-8.6297228-.71471354-3.3702772-7.67330208-3.37087129 7.67330208-8.62912871.71471354 6.54605941 5.47278648-1.96223763 8.1391979z"/><filter id="Z" height="109.1%" width="108.3%" x="-2.1%" y="-2.3%"><feOffset dx="1" dy="1" in="SourceAlpha" result="shadowOffsetOuter1"/><feColorMatrix in="shadowOffsetOuter1" type="matrix" values="0 0 0 0 1   0 0 0 0 1   0 0 0 0 1  0 0 0 1 0"/></filter><path id="aa" d="m12 17.6851354 7.4156436 4.3148646-1.9616436-8.1391979 6.546-5.47278648-8.6297228-.71471354-3.3702772-7.67330208-3.37087129 7.67330208-8.62912871.71471354 6.54605941 5.47278648-1.96223763 8.1391979z"/><filter id="ab" height="109.1%" width="108.3%" x="-2.1%" y="-2.3%"><feOffset dx="1" dy="1" in="SourceAlpha" result="shadowOffsetOuter1"/><feColorMatrix in="shadowOffsetOuter1" type="matrix" values="0 0 0 0 1   0 0 0 0 1   0 0 0 0 1  0 0 0 1 0"/></filter><path id="ac" d="m12 17.6851354 7.4156436 4.3148646-1.9616436-8.1391979 6.546-5.47278648-8.6297228-.71471354-3.3702772-7.67330208-3.37087129 7.67330208-8.62912871.71471354 6.54605941 5.47278648-1.96223763 8.1391979z"/><filter id="ad" height="109.1%" width="108.3%" x="-2.1%" y="-2.3%"><feOffset dx="1" dy="1" in="SourceAlpha" result="shadowOffsetOuter1"/><feColorMatrix in="shadowOffsetOuter1" type="matrix" values="0 0 0 0 1   0 0 0 0 1   0 0 0 0 1  0 0 0 1 0"/></filter><path id="ae" d="m12 17.6851354 7.4156436 4.3148646-1.9616436-8.1391979 6.546-5.47278648-8.6297228-.71471354-3.3702772-7.67330208-3.37087129 7.67330208-8.62912871.71471354 6.54605941 5.47278648-1.96223763 8.1391979z"/><filter id="af" height="109.1%" width="108.3%" x="-2.1%" y="-2.3%"><feOffset dx="1" dy="1" in="SourceAlpha" result="shadowOffsetOuter1"/><feColorMatrix in="shadowOffsetOuter1" type="matrix" values="0 0 0 0 1   0 0 0 0 1   0 0 0 0 1  0 0 0 1 0"/></filter><path id="ag" d="m12 17.6851354 7.4156436 4.3148646-1.9616436-8.1391979 6.546-5.47278648-8.6297228-.71471354-3.3702772-7.67330208-3.37087129 7.67330208-8.62912871.71471354 6.54605941 5.47278648-1.96223763 8.1391979z"/><filter id="ah" height="109.1%" width="108.3%" x="-2.1%" y="-2.3%"><feOffset dx="1" dy="1" in="SourceAlpha" result="shadowOffsetOuter1"/><feColorMatrix in="shadowOffsetOuter1" type="matrix" values="0 0 0 0 1   0 0 0 0 1   0 0 0 0 1  0 0 0 1 0"/></filter><path id="ai" d="m12 17.6851354 7.4156436 4.3148646-1.9616436-8.1391979 6.546-5.47278648-8.6297228-.71471354-3.3702772-7.67330208-3.37087129 7.67330208-8.62912871.71471354 6.54605941 5.47278648-1.96223763 8.1391979z"/><filter id="aj" height="109.1%" width="108.3%" x="-2.1%" y="-2.3%"><feOffset dx="1" dy="1" in="SourceAlpha" result="shadowOffsetOuter1"/><feColorMatrix in="shadowOffsetOuter1" type="matrix" values="0 0 0 0 1   0 0 0 0 1   0 0 0 0 1  0 0 0 1 0"/></filter><path id="ak" d="m12 17.6851354 7.4156436 4.3148646-1.9616436-8.1391979 6.546-5.47278648-8.6297228-.71471354-3.3702772-7.67330208-3.37087129 7.67330208-8.62912871.71471354 6.54605941 5.47278648-1.96223763 8.1391979z"/><filter id="al" height="109.1%" width="108.3%" x="-2.1%" y="-2.3%"><feOffset dx="1" dy="1" in="SourceAlpha" result="shadowOffsetOuter1"/><feColorMatrix in="shadowOffsetOuter1" type="matrix" values="0 0 0 0 1   0 0 0 0 1   0 0 0 0 1  0 0 0 1 0"/></filter></defs><g fill="none" fill-rule="nonzero"><g fill="#d3d3d3" transform="translate(258 31)"><path d="m614.5 460.4.6.2 1.3-2.7 1.5-4.4 2.3.6 3.1 6v1l-2.7 1.9 2.7.3 5.2-2.5-.3-7.6-2.5-1.8-2-2 .4-4 10.5-1.5 25.7-2.9 6.7-.6 5.6.1-.5-2.2-1.5-.8-.9-1.1 1-2.6-.4-5.2-1.6-4.5.8-5.1 1.7-4.8-.2-1.7-1.8-.7-.5-3.6-2.7-3.4-2-6.5-1.4-6.7-1.8-5-3.8-16-3.5-7.9-.8-5.6.1-2.2-9 .8-23.4 2.2-12.2.8-.2 6.4.2 16.7-.7 31-.3 14.1 2.8 18.8 1.6 14.7z"/><path d="m573.3 340.1-6.4-.7.9-3.1 3.1-2.6.6-2.3-1.8-2.9-31.9 1.2-23.3.7-23.6.3 1.5 6.9.1 8.5 1.4 10.9.3 38.2 2.1 1.6 3-1.2 2.9 1.2.4 10.1 25.2-.2 26.8-.8.9-1.9-.3-3.8-1.7-3.1 1.5-1.4-1.4-2.2.7-2.4 1.1-5.9 2.7-2.3-.8-2.2 4-5.6 2.5-1.1-.1-1.7-.5-1.7 2.9-5.8 2.5-1.1.2-3.3 2.1-1.4.9-4.1-1.4-4 4.2-2.4.3-2.1 1.2-4.2.9-3.1z"/><path d="m121.1 383.7-.3 1.5.5 1 18.9 10.7 12.1 7.6 14.7 8.6 16.8 10 12.3 2.4 25.4 2.7 6-39.6 7-53.1 4.4-31-24.6-3.6-60.7-11-.2 1.1-2.6 16.5-2.1 3.8-2.8-.2-1.2-2.6-2.6-.4-1.2-1.1-1.1.1-2.1 1.7-.3 6.8-.3 1.5-.5 12.5-1.5 2.4-.4 3.3 2.8 5 1.1 5.5.7 1.1 1.1.9-.4 2.4-1.7 1.2-3.4 1.6-1.6 1.8-1.6 3.6-.5 4.9-3 2.9-1.9.9-.1 5.8-.6 1.6.5.8 3.9.4-.9 3-1.7 2.4-3.7.4z"/><path d="m108.7 379.9-19.7-2.7-10-1.5-.5-1.8v-9.4l-.3-3.2-2.6-4.2-.8-2.3-3.9-4.2-2.9-4.7-2.7-.2-3.2-.8-.3-1 1.5-.6-.6-3.2-1.5-2.1-4.8-.8-3.9-2.1-1.1-2.3-2.6-4.8-2.9-3.1h-2.9l-3.9-2.1-4.5-1.8-4.2-.5-2.4-2.7.5-1.9 1.8-7.1.8-1.9v-2.4l-1.6-1-.5-2.9-1.5-2.6-3.4-5.8-1.3-3.1-1.5-4.7-1.6-5.3-3.2-4.4-.5-2.9.8-3.9h1.1l2.1-1.6 1.1-3.6-1-2.7-2.7-.5-1.9-2.6-2.1-3.7-.2-8.2.6-1.9.6-2.3.5-2.4-5.7-6.3v-2.1l.3-.5.3-3.2-1.3-4-2.3-4.8-2.7-4.5-1.8-3.9 1-3.7.6-5.8 1.8-3.1.3-6.5-1.1-3.6-1.6-4.2-2.7-4.2.8-3.2 1.5-4.2 1.8-.8.3-1.1 3.1-2.6 5.2-11.8.2-7.4 1.69-4.9 38.69 11.8 25.6 6.6-8 31.3-8.67 33.1 12.63 19.2 42.16 62.3 17.1 26.1-.4 3.1 2.8 5.2 1.1 5.4 1 1.5.7.6-.2 1.4-1.4 1-3.4 1.6-1.9 2.1-1.7 3.9-.5 4.7-2.6 2.5-2.3 1.1-.1 6.2-.6 1.9 1 1.7 3 .3-.4 1.6-1.4 2-3.9.6zm-73.9-48.9 1.3 1.5-.2 1.3-3.2-.1-.6-1.2-.6-1.5zm1.9 0 1.2-.6 3.6 2.1 3.1 1.2-.9.6-4.5-.2-1.6-1.6zm20.7 19.8 1.8 2.3.8 1 1.5.6.6-1.5-1-1.8-2.7-2-1.1.2v1.2zm-1.4 8.7 1.8 3.2 1.2 1.9-1.5.2-1.3-1.2s-.7-1.5-.7-1.9 0-2.2 0-2.2z"/><path d="m366.2 229.5-36-3.5-79.1-8.6-2.2 22.1-7 50.4-1.9 13.7 34 3.9 37.5 4.4 34.7 3 14.3.6z"/><path d="m838 184.9 3.6-3.2 1.9-2.1.8.6 2.7-1.5 5.2-1.1 7-3.5-.6-4.2-.8-4.4-1.6-6-4.3 1.1-21.8 4.7.6 3.1 1.5 7.3v8.3l-.9 2.1 1.7 2.2z"/><path d="m820.4 241.2-1 .5-3.6-2.4-1.8-4.7-1.9-3.6-2.3-1-2.1-3.6.5-2 .5-2.3.1-1.1-.6.1-1.7 1-2 1.7-.2.3 1.4 4.1 2.3 5.6 3.7 16.1 5-.3 6-1.1z"/><path d="m736.2 439.2-5.2-.7-.7.8 1.5 4.4-.4 5.2-4.1-1-.2-2.8h-4.1l-5.3.7-32.4 1.9-8.2-.3-1.7-1.7-2.5-4.2h-5.9l-6.6.5-35.4 4.2-.3 2.8 1.6 1.6 2.9 2 .3 8.4 3.3-.6 6-2.1 6-.5 4.4-.6 7.6 1.8 8.1 3.9 1.6 1.5 2.9 1.1 1.6 1.9.3 2.7 3.2-1.3h3.9l3.6-1.9 3.7-3.6 3.1.2.5-1.1-.8-1 .2-1.9 4-.8h2.6l2.9 1.5 4.2 1.5 2.4 3.7 2.7 1 1.1 3.4 3.4 1.6 1.6 2.6 1.9.6 5.2 1.3 1.3 3.1 3 3.7v9.5l-1.5 4.7.3 2.7 1.3 4.8 1.8 4 .8-.5 1.5-4.5-2.6-1-.3-.6 1.6-.6 4.5 1 .2 1.6-3.2 5.5-2.1 2.4 3.6 3.7 2.6 3.1 2.9 5.3 2.9 3.9 2.1 5 1.8.3 1.6-2.1 1.8 1.1 2.6 4 .6 3.6 3.1 4.4.8-1.3 3.9.3 3.6 2.3 3.4 5.2.8 3.4.3 2.9 1.1 1 1.3.5 2.4-1 1.5-1.6 3.9-.2 3.1-1.5 2.7-3.2-.5-1.9-.3-2.4.6-1.9-.3-1.9 2.4-1.3.3-3.4-.6-1.8-.5-12-1.3-7.6-4.5-8.2-3.6-5.8-2.6-5.3-2.9-2.9-2.9-7.4.7-1.4 1.1-1.3-1.6-2.9-4-3.7-4.8-5.5-3.7-6.3-5.3-9.4-3.7-9.7-2.3-7.3zm17.7 132.7 2.4-.6 1.3-.2 1.5-2.3 2.3-1.6 1.3.5 1.7.3.4 1.1-3.5 1.2-4.2 1.5-2.3 1.2zm13.5-5 1.2 1.1 2.7-2.1 5.3-4.2 3.7-3.9 2.5-6.6 1-1.7.2-3.4-.7.5-1 2.8-1.5 4.6-3.2 5.3-4.4 4.2-3.4 1.9z"/><path d="m736.2 438.2-5.6-.7-1.4 1.6 1.6 4.7-.3 3.9-2.2-.6-.2-3h-5.2l-5.3.7-32.3 1.9-7.7-.3-1.4-1.2-2.5-4.3-.8-3.3-1.6-.9-.5-.5.9-2.2-.4-5.5-1.6-4.5.8-4.9 1.7-4.8-.2-2.5-1.9-.7-.4-3.2-2.8-3.5-1.9-6.2-1.5-7-1.7-4.8-3.8-16-3.5-8-.8-5.3.1-2.3 3.3-.3 13.6-1.6 18.6-2 6.3-1.1.5 1.4-2.2.9-.9 2.2.4 2 1.4 1.6 4.3 2.7 3.2-.1 3.2 4.7.6 1.6 2.3 2.8.5 1.7 4.7 1.8 3 2.2 2.3 3 2.3 1.3 2 1.8 1.4 2.7 2.1 1.9 4.1 1.8 2.7 6 1.7 5.1 2.8.7 2.1 1.9 2 5.7 2.9 1.6 1.7-.8.4 1.2-3.3 6.2.5 2.6-1.5 4.2-2.3 10 .8 6.3z"/><path d="m542.8 177.6 2.1 2.1.3.7-2 3 .3 4 2.6 4.1 3.1 1.6 2.4.3.9 1.8.2 2.4 2.5 1 .9 1.1.5 1.6 3.8 3.3.6 1.9-.7 3-1.7 3.7-.6 2.4-2.1 1.6-1.6.5-5.7 1.5-1.6 4.8.8 1.8 1.7 1.5-.2 3.5-1.9 1.4-.7 1.8v2.4l-1.4.4-1.7 1.4-.5 1.7.4 1.7-1.3 1-2.3-2.7-1.4-2.8-8.3.8-10 .6-49.2 1.2-1.6-4.3-.4-6.7-1.4-4.2-.7-5.2-2.2-3.7-1-4.6-2.7-7.8-1.1-5.6-1.4-1.9-1.3-2.9 1.7-3.8 1.2-6.1-2.7-2.2-.3-2.4.7-2.4 1.8-.3 61.1-.6 21.2-.7z"/><path d="m161.3 21.63-4.8 17.41-4.5 20.86-3.4 16.22-.4 9.67 1.2 4.44 3.5 2.66-.2 3.91-3.9 4.4-4.5 6.6-.9 2.9-1.2 1.1-1.8.8-4.3 5.3-.4 3.1-.4 1.1.6 1 2.6-.1 1.1 2.3-2.4 5.8-1.2 4.2-8.8 35.3 20.7 4.5 39.5 7.9 34.8 6.1 4.9-29.2 3.8-24.1-2.7-2.4-.4-2.6-.8-1.1-2.1 1-.7 2.6-3.2.5-3.9-1.6-3.8.1-2.5.7-3.4-1.5-2.4.2-2.4 2-2-1.1-.7-4 .7-2.9-2.5-2.9-3.3-2.6-2.7-13.1-.1-4.7-.3-.1-.2.4-5.1 3.5-1.7-.2-2.9-3.4-.2-3.1 7-17.13-.4-1.94-3.4-1.15-.6-1.18-2.6-3.46-4.6-10.23-3.2-1.53-2-4.95 1.3-4.63-3.2-7.58 4.4-21.52z"/><path d="m604.7 208.3-.8-2.6-1.3-3.7-1.6-1.8-1.5-2.6-.4-5.5-15.9 1.8-17.4 1h-12.3l.2 2.1 2.2.9 1.1 1.4.4 1.4 3.9 3.4.7 2.4-.7 3.3-1.7 3.7-.8 2.7-2.4 1.9-1.9.6-5.2 1.3-1.3 4.1.6 1.1 1.9 1.8-.2 4.3-2.1 1.6-.5 1.3v2.8l-1.8.6-1.4 1.2-.4 1.2.4 2-1.6 1.3-.9 2.8.3 3.9 2.3 7 7 7.6 5.7 3.7v4.4l.7 1.2 6.6.6 2.7 1.4-.7 3.5-2.2 6.2-.8 3 2 3.7 6.4 5.3 4.8.8 2.2 5.1 2 3.4-.9 2.8 1.5 3.8 1.7 2.1 1.6-.3 1-2.2 2.4-1.7 2.8-1 6.1 2.5.5-.2v-1.1l-1.2-2.7.4-2.8 2.4-1.6 3.4-1.2-.5-1.3-.8-2 1.2-1.3 1-2.7v-4l.4-4.9 2.5-3 1.8-3.8 2.5-4-.5-5.3-1.8-3.2-.3-3.3.8-5.3-.7-7.2-1.1-15.8-1.4-15.3-.9-11.7z"/><path d="m608.9 210.1 1.5 1 1.1-.3 2.1-1.9 2.5-1.8 14.3-1.1 18.4-1.8 1.6 15.5 4.9 42.6-.6 2.9 1.3 1.6.2 1.3-2.3 1.6-3.6 1.7-3.2.4-.5 4.8-4.7 3.6-2.9 4 .2 2.4-.5 1.4h-3.5l-1.4-1.7-5.2 3 .2 3.1-.9.2-.5-.9-2.4-1.7-3.6 1.5-1.4 2.9-1.2-.6-1.6-1.8-4.4.5-5.7 1-2.5 1.3v-2.6l.4-4.7 2.3-2.9 1.8-3.9 2.7-4.2-.5-5.8-1.8-3.1-.3-3.2.8-5.3-.7-7.1-.9-12.6-2.5-30.1z"/><path d="m471.9 253.5-43.8-.6-40.6-1.2-21.7-.9-4.3 64.8 24.3 1 44.7 2.1 46.3.6 12.6-.3.7-35-1.2-11.1-2.5-2-2.4-3-2.3-3.6.6-3 1.7-1.4v-2.1l-.8-.7-2.6-.2-3.5-3.4z"/><path d="m593.2 325.8 12.6-.7.1-4.1h4.3l30.4-3.2 45.1-4.3 5.6-3.6 3.9-2.1.1-1.9 6-7.8 4.1-3.6 2.1-2.4-3.3-2-2.5-2.7-3-3.8-.5-2.2-2.6-1.4-.9-1.9-.2-6.1-2.6-2-1.9-1.1-.5-2.3-1.3.2-2 1.2-2.5 2.7-1.9-1.7-2.5-.5-2.4 1.4h-2.3l-1.8-2-5.6-.1-1.8-4.5-2.9-1.5-2.1.8-4.2.2-.5 2.1 1.2 1.5.3 2.1-2.8 2-3.8 1.8-2.6.4-.5 4.5-4.9 3.6-2.6 3.7.2 2.2-.9 2.3-4.5-.1-1.3-1.3-3.9 2.2.2 3.3-2.4.6-.8-1.4-1.7-1.2-2.7 1.1-1.8 3.5-2.2-1-1.4-1.6-3.7.4-5.6 1-2.8 1.3-1.2 3.4-1 1 1.5 3.7-4.2 1.4-1.9 1.4-.4 2.2 1.2 2.4v2.2l-1.6.4-6.1-2.5-2.3.9-2 1.4-.8 1.8 1.7 2.4-.9 1.8-.1 3.3-2.4 1.3-2.1 1.7z"/><path d="m512.9 479.9 8.1-.3 10.3 3.6 6.5 1.1 3.7-1.5 3.2 1.1 3.2 1 .8-2.1-3.2-1.1-2.6.5-2.7-1.6.8-1.5 3.1-1 1.8 1.5 1.8-1 3.2.6 1.5 2.4.3 2.3 4.5.3 1.8 1.8-.8 1.6-1.3.8 1.6 1.6 8.4 3.6 3.6-1.3 1-2.4 2.6-.6 1.8-1.5 1.3 1 .8 2.9-2.3.8.6.6 3.4-1.3 2.3-3.4.8-.5-2.1-.3.8-1.6-.2-1.5 2.1-.5 1.1-1.3.6.8.6 3.1 4.2.6 4 1.9 1 1.5h2.9l1.1 1 2.3-3.1v-1.5h-1.3l-3.4-2.7-5.8-.8-3.2-2.3 1.1-2.7 2.3.3.2-.6-1.8-1v-.5h3.2l1.8-3.1-1.3-1.9-.3-2.7-1.5.2-1.9 2.1-.6 2.6-3.1-.6-1-1.8 1.8-1.9 1.9-1.7-2.2-6.5-3.4-3.4 1-7.3-.2-.5-1.3.2-33.1 1.4-.8-2.4.8-8.5 8.6-14.8-.9-2.6 1.4-.4.4-2-2.2-2 .1-1.9-2-4.5-.4-5.1.1-.7-26.4.8-25.2.1.4 9.7.7 9.5.5 3.7 2.6 4.5.9 4.4 4.3 6 .3 3.1.6.8-.7 8.3-2.8 4.6 1.2 2.4-.5 2.6-.8 7.3-1.3 3 .2 3.7z"/><path d="m873.5 166.5-.5-2.3.8-1.5 2.9-1.5.8 3.1-.5 1.8-2.4 1.5v1l1.9-1.5 3.9-4.5 3.9-1.9 4.2-1.5-.3-2.4-1-2.9-1.9-2.4-1.8-.8-2.1.2-.5.5 1 1.3 1.5-.8 2.1 1.6.8 2.7-1.8 1.8-2.3 1-3.6-.5-3.9-6-2.3-2.6h-1.8l-1.1.8-1.9-2.6.3-1.5 2.4-5.2-2.9-4.4-3.7 1.8-1.8 2.9-18.3 4.7-13.8 2.5-.6 10.6.7 4.9 22-4.8 11.2-2.8 2 1.6 3.4 4.3 2.9 4.7zm12.5 1.4 2.2-.7.5-1.7 1 .1 1 2.3-1.3.5-3.9.1zm-9.4.8 2.3-2.6h1.6l1.8 1.5-2.4 1-2.2 1z"/><path d="m820.8 258.1 1.7-3.8.5-4.8-6.3 1.1-5.8.3-3.8-16.8-2.3-5.5-1.5-4.6-22.2 4.3-37.6 7.6 2 10.4 4.8-4.9 2.5-.7 1.4-1.5 1.8-2.7 1.6.7 2.6-.2 2.6-2.1 2-1.5 2.1-.6 1.5 1.1 2.7 1.4 1.9 1.8 1.3 1.4 4.8 1.6-.6 2.9 5.8 2.1 2.1-2.6 3.7 2.5-2.1 3.3-.7 3.3-1.8 2.6v2.1l.3.8 2 1.3 3.4 1.1 4.3-.1 3.1 1 2.1.3 1-2.1-1.5-2.1v-1.8l-2.4-2.1-2.1-5.5 1.3-5.3-.2-2.1-1.3-1.3s1.5-1.6 1.5-2.3c0-.6.5-2.1.5-2.1l1.9-1.3 1.9-1.6.5 1-1.5 1.6-1.3 3.7.3 1.1 1.8.3.5 5.5-2.1 1 .3 3.6.5-.2 1.1-1.9 1.6 1.8-1.6 1.3-.3 3.4 2.6 3.4 3.9.5 1.6-.8 3.2 4.2 1 .4zm-14.5.2 1.1 2.5.2 1.8 1.1 1.9s.9-.9.9-1.2-.7-3.1-.7-3.1l-.7-2.3z"/><path d="m851.8 85.9 1.5.4v-2.6l.8-5.5 2.6-4.7 1.5-4-1.9-2.4v-6l.8-1 .8-2.7-.2-1.5-.2-4.8 1.8-4.8 2.9-8.9 2.1-4.2h1.3l1.3.2v1.1l1.3 2.3 2.7.6.8-.8v-1l4-2.9 1.8-1.8 1.5.2 6 2.4 1.9 1 9.1 29.9h6l.8 1.9.2 4.8 2.9 2.3h.8l.2-.5-.5-1.1 2.8-.5 1.9 2.1 2.3 3.7v1.9l-2.1 4.7-1.9.6-3.4 3.1-4.8 5.5s-.6 0-1.3 0c-.6 0-1-2.1-1-2.1l-1.8.2-1 1.5-2.4 1.5-1 1.5 1.6 1.5-.5.6-.5 2.7-1.9-.2v-1.6l-.3-1.3-1.5.3-1.8-3.2-2.1 1.3 1.3 1.5.3 1.1-.8 1.3.3 3.1.2 1.6-1.6 2.6-2.9.5-.3 2.9-5.3 3.1-1.3.5-1.6-1.5-3.1 3.6 1 3.2-1.5 1.3-.2 4.4-1.1 6.3-2.2-.9-.5-3.1-4-1.1-.2-2.5-11.7-37.43zm36.5 15.6 1.5-1.5 1.4 1.1.6 2.4-1.7.9zm6.7-5.9 1.8 1.9s1.3.1 1.3-.2.2-2 .2-2l.9-.8-.8-1.8-2 .7z"/><path d="m630.5 205 19.1-1.9.2 1.1 9.9-1.5 12-1.7.1-.6.2-1.5 2.1-3.7 2-1.7-.2-5.1 1.6-1.6 1.1-.3.2-3.6 1.5-3 1.1.6.2.6.8.2 1.9-1-.4-9.1-3.2-8.2-2.3-9.1-2.4-3.2-2.6-1.8-1.6 1.1-3.9 1.8-1.9 5-2.7 3.7-1.1.6-1.5-.6s-2.6-1.5-2.4-2.1.5-5 .5-5l3.4-1.3.8-3.4.6-2.6 2.4-1.6-.3-10-1.6-2.3-1.3-.8-.8-2.1.8-.8 1.6.3.2-1.6-2.6-2.2-1.3-2.6h-2.6l-4.5-1.5-5.5-3.4h-2.7l-.6.6-1-.5-3.1-2.3-2.9 1.8-2.9 2.3.3 3.6 1 .3 2.1.5.5.8-2.6.8-2.6.3-1.5 1.8-.3 2.1.3 1.6.3 5.5-3.6 2.1-.6-.2v-4.2l1.3-2.4.6-2.4-.8-.8-1.9.8-1 4.2-2.7 1.1-1.8 1.9-.2 1 .6.8-.6 2.6-2.3.5v1.1l.8 2.4-1.1 6.1-1.6 4 .6 4.7.5 1.1-.8 2.4-.3.8-.3 2.7 3.6 6 2.9 6.5 1.5 4.8-.8 4.7-1 6-2.4 5.2-.3 2.7-3.2 3.1zm-33.3-72.4-1.3-1.1-1.8-10.4-3.7-1.3-1.7-2.3-12.6-2.8-2.8-1.1-8.1-2.2-7.8-1-3.9-5.3.7-.5 2.7-.8 3.6-2.3v-1l.6-.6 6-1 2.4-1.9 4.4-2.1.2-1.3 1.9-2.9 1.8-.8 1.3-1.8 2.3-2.3 4.4-2.4 4.7-.5 1.1 1.1-.3 1-3.7 1-1.5 3.1-2.3.8-.5 2.4-2.4 3.2-.3 2.6.8.5 1-1.1 3.6-2.9 1.3 1.3h2.3l3.2 1 1.5 1.1 1.5 3.1 2.7 2.7 3.9-.2 1.5-1 1.6 1.3 1.6.5 1.3-.8h1.1l1.6-1 4-3.6 3.4-1.1 6.6-.3 4.5-1.9 2.6-1.3 1.5.2v5.7l.5.3 2.9.8 1.9-.5 6.1-1.6 1.1-1.1 1.5.5v7l3.2 3.1 1.3.6 1.3 1-1.3.3-.8-.3-3.7-.5-2.1.6-2.3-.2-3.2 1.5h-1.8l-5.8-1.3-5.2.2-1.9 2.6-7 .6-2.4.8-1.1 3.1-1.3 1.1-.5-.2-1.5-1.6-4.5 2.4h-.6l-1.1-1.6-.8.2-1.9 4.4-1 4-3.2 6.9zm-29.6-56.5 1.8-2.1 2.2-.8 5.4-3.9 2.3-.6.5.5-5.1 5.1-3.3 1.9-2.1.9zm86.2 32.1.6 2.5 3.2.2 1.3-1.2s-.1-1.5-.4-1.6c-.3-.2-1.6-1.9-1.6-1.9l-2.2.2-1.6.2-.3 1.1z"/><path d="m450.6 60.79-.6 3.91v10.27l1.6 5.03 1.9 3.32.5 9.93 1.8 13.45 1.8 7.3.4 6.4v5.3l-1.6 1.8-1.8 1.3v1.5l.9 1.7 4.1 3.5.7 3.2v35.9l60.3-.6 21.2-.7-.5-6-1.8-2.1-7.2-4.6-3.6-5.3-3.4-.9-2-2.8h-3.2l-3.5-3.8-.5-7 .1-3.9 1.5-3-.7-2.7-2.8-3.1 2.2-6.1 5.4-4 1.2-1.4-.2-8 .2-3 2.6-3 3.8-2.9 1.3-.2 4.5-5 1.8-.8 2.3-3.9 2.4-3.6 3.1-2.6 4.8-2 9.2-4.1 3.9-1.8.6-2.3-4.4.4-.7 1.1h-.6l-1.8-3.1-8.9.3-1 .8h-1l-.5-1.3-.8-1.8-2.6.5-3.2 3.2-1.6.8h-3.1l-2.6-1v-2.1l-1.3-.2-.5.5-2.6-1.3-.5-2.9-1.5.5-.5 1-2.4-.5-5.3-2.4-3.9-2.6h-2.9l-1.3-1-2.3.6-1.1 1.1-.3 1.3h-4.8v-2.1l-6.3-.3-.3-1.5h-4.8l-1.6-1.6-1.5-6.1-.8-5.5-1.9-.8-2.3-.5-.6.2-.3 8.2-30.1-.03z"/><path d="m579.1 332.7.5-5.9 4.2-3.4 1.9-1v-2.9l.7-1.6-1.1-1.6-2.4.3-2.1-2.5-1.7-4.5.9-2.6-2-3.2-1.8-4.6-4.6-.7-6.8-5.6-2.2-4.2.8-3.3 2.2-6 .6-3-1.9-1-6.9-.6-1.1-1.9v-4.1l-5.3-3.5-7.2-7.8-2.3-7.3-.5-4.2.7-2.4-2.6-3.1-1.2-2.4-7.7.8-10 .6-48.8 1.2 1.3 2.6-.1 2.2 2.3 3.6 3 3.9 3.1 3 2.6.2 1.4 1.1v2.9l-1.8 1.6-.5 2.3 2.1 3.2 2.4 3 2.6 2.1 1.3 11.6-.8 40 .5 5.7 23.7-.2 23.3-.7 32.5-1.3 2.2 3.7-.8 3.1-3.1 2.5-.5 1.8 5.2.5 4.1-1.1z"/><path d="m590.3 466.5 2.6-4.2 1.8.8 6.8-1.9 2.1.3 1.5.8h5.2l.4-1.6-1.7-14.8-2.8-19 1-45.1-.2-16.7.2-6.3-4.8.3-19.6 1.6-13 .4-.2 3.2-2.8 1.3-2.6 5.1.5 1.6.1 2.4-2.9 1.1-3.5 5.1.8 2.3-3 2.5-1 5.7-.6 1.9 1.6 2.5-1.5 1.4 1.5 2.8.3 4.2-1.2 2.5-.2.9.4 5 2 4.5-.1 1.7 2.3 2-.7 3.1-.9.3.6 1.9-8.6 15-.8 8.2.5 1.5 24.2-.7 8.2-.7 1.9-.3.6 1.4-1 7.1 3.3 3.3 2.2 6.4z"/><path d="m347.1 64.77-5.3 57.13-1.3 15.2-59.1-6.6-49-7.1-1.4 11.2-1.9-1.7-.4-2.5-1.3-1.9-3.3 1.5-.7 2.5-2.3.3-3.8-1.6-4.1.1-2.4.7-3.2-1.5-3 .2-2.1 1.9-.9-.6-.7-3.4.7-3.2-2.7-3.2-3.3-2.5-2.5-12.6-.1-5.3-1.6-.8-.6 1-4.5 3.2-1.2-.1-2.3-2.8-.2-2.8 7-17.15-.6-2.67-3.5-1.12-.4-.91-2.7-3.5-4.6-10.41-3.2-1.58-1.8-4.26 1.3-4.63-3.2-7.57 4.4-21.29 32.7 6.89 18.4 3.4 32.3 5.3 29.3 4 29.2 3.5 30.8 3.07z"/><path d="m772.7 351.7-12.7-7.7-3.1-.8-16.6 2.1-1.6-3-2.8-2.2-16.7.5-7.4.9-9.2 4.5-6.8 2.7-6.5 1.2-13.4 1.4.1-4.1 1.7-1.3 2.7-.7.7-3.8 3.9-2.5 3.9-1.5 4.5-3.7 4.4-2.3.7-3.2 4.1-3.8.7 1 2.5.2 2.4-3.6 1.7-.4 2.6.3 1.8-4 2.5-2.4.5-1.8.1-3.5 4.4.1 38.5-5.6 57.5-12.3 2 4.8 3.6 6.5 2.4 2.4.6 2.3-2.4.2.8.6-.3 4.2-2.6 1.3-.6 2.1-1.3 2.9-3.7 1.6-2.4-.3-1.5-.2-1.6-1.3.3 1.3v1h1.9l.8 1.3-1.9 6.3h4.2l.6 1.6 2.3-2.3 1.3-.5-1.9 3.6-3.1 4.8h-1.3l-1.1-.5-2.7.6-5.2 2.4-6.5 5.3-3.4 4.7-1.9 6.5-.5 2.4-4.7.5-5.1 1.5zm49.3-26.2 2.6-2.5 3.2-2.6 1.5-.6.2-2-.6-6.1-1.5-2.3-.6-1.9.7-.2 2.7 5.5.4 4.4-.2 3.4-3.4 1.5-2.8 2.4-1.1 1.2z"/><path d="m457 120.4-.4-6.2-1.8-7.3-1.8-13.61-.5-9.7-1.9-3.18-1.6-5.32v-10.41l.6-3.85-1.8-5.54-28.6-.59-18.6-.6-26.5-1.3-25.2-2.16-.9 14.42-4.7 50.94 56.8 3.9 56.9 1.7z"/><path d="m456.3 198.3-1-2.3-.5-1.6-2.9-1.6-4.8-1.5-2.2-1.2-2.6.1-3.7.4-4.2 1.2-6-4.1-2.2-2-10.7.6-41.5-2.4-35.6-2.2-4.3 43.7 33.1 3.3-1.4 21.1 21.7 1 40.6 1.2 43.8.6h4.5l-2.2-3-2.6-3.9.1-2.3-1.4-2.7-1.9-5.2-.4-6.7-1.4-4.1-.5-5-2.3-3.7-1-4.7-2.8-7.9-1-5.3z"/><path d="m867.7 135.3 1.1-3.2-2.7-1.2-.5-3.1-4.1-1.1-.3-3-11.7-37.48-.7.08-.6 1.6-.6-.5-1-1-1.5 1.9-.2 2.29.5 8.41 1.9 2.8v4.3l-3.9 4.8-2.4.9v.7l1.1 1.9v8.6l-.8 9.2-.2 4.7 1 1.4-.2 4.7-.5 1.5 1 1.1 5.1-1.2 13.8-3.5 1.7-2.9 4-1.9z"/><path d="m809.7 222.3.1-1.5 2.7-1.3 1.7-2.8 1.7-2.4 3.3-3.2v-1.2l-6.1-4.1-1-2.7-2.7-.3-.1-.9-.7-2.2 2.2-1.1.2-2.9-1.3-1.3.2-1.2 1.9-3.1v-3.1l2.5-3.1 5.6 2.5 6.4 1.9 2.5 1.2.1 1.8-.5 2.7.4 4.5-2.1 1.9-1.1 1 .5.5 2.7-.3 1.1-.8 1.6 3.4.2 9.4.6 1.1-1.1 5.5-3.1 6.5-2.7 4-.8 4.8-2.1 2.4h-.8l-.3-2.7.8-1-.2-1.5-4-.6-4.8-2.3-3.2-2.9-1-2z"/><path d="m256.2 423.4-16.7-2.6-1.2 9.6-15.8-2 6-39.7 7-53.2 4.4-30.9 34 3.9 37.4 4.4 32 2.8-.3 10.8-1.4-.1-7.4 97.7-28.4-1.8-38.1-3.7.7 6.3z"/><path d="m109.1 167.6 38.7 8.5 26 5.2-10.6 53.1-5.4 29.8-3.3 15.5-2.1 11.1-2.6 16.4-1.7 3.1-1.6-.1-1.2-2.6-2.8-.5-1.3-1.1-1.8.1-.9.8-1.8 1.3-.3 7.3-.3 1.5-.5 12.4-1.1 1.8-16.7-25.5-42.1-62.1-12.43-19 8.55-32.6 8.01-31.3z"/><path d="m829.4 194 .5-2.7-.2-2.4-3-1.5-6.5-2-6-2.6-.6-.4-2.7-.3-2-1.5-2.1-5.9-3.3-.5-2.4-2.4-38.4 8.1-31.6 6-.5-6.5 1.6-1.2 1.3-1.1 1-1.6 1.8-1.1 1.9-1.8.5-1.6 2.1-2.7 1.1-1-.2-1-1.3-3.1-1.8-.2-1.9-6.1 2.9-1.8 4.4-1.5 4-1.3 3.2-.5 6.3-.2 1.9 1.3 1.6.2 2.1-1.3 2.6-1.1 5.2-.5 2.1-1.8 1.8-3.2 1.6-1.9h2.1l1.9-1.1.2-2.3-1.5-2.1-.3-1.5 1.1-2.1v-1.5h-1.8l-1.8-.8-.8-1.1-.2-2.6 5.8-5.5.6-.8 1.5-2.9 2.9-4.5 2.7-3.7 2.1-2.4 2.4-1.8 3.1-1.2 5.5-1.3 3.2.2 4.5-1.5 7.4-2.2.7 4.9 2.4 6.5.8 5-1 4.2 2.6 4.5.8 2-.9 3.2 3.7 1.7 2.7 10.2v5.8l-.6 10.9.8 5.4.7 3.6 1.5 7.3v8.1l-1.1 2.3 2.1 2.7.5.9-1.9 1.8.3 1.3 1.3-.3 1.5-1.3 2.3-2.6 1.1-.6 1.6.6 2.3.2 7.9-3.9 2.9-2.7 1.3-1.5 4.2 1.6-3.4 3.6-3.9 2.9-7.1 5.3-2.6 1-5.8 1.9-4 1.1-1-.4z"/><path d="m649.8 205.2 1.7 15.5 4.8 41.1 3.9-.2 2.3-.8 3.6 1.8 1.7 4.2 5.4.1 1.8 2h1.7l2.4-1.4 3.1.5 1.5 1.3 1.8-2 2.3-1.4 2.4-.4.6 2.7 1.6 1 2.6 2 .8.2 2-.1 1.2-.6v-2.1l1.7-1.5.1-4.8 1.1-4.2 1.9-1.3 1 .7 1 1.1.7.2.4-.4-.9-2.7v-2.2l1.1-1.4 2.5-3.6 1.3-1.5 2.2.5 2.1-1.5 3-3.3 2.2-3.7.2-5.4.5-5v-4.6l-1.2-3.2 1.2-1.8 1.3-1.2-.6-2.8-4.3-25.6-6.2 3.7-3.9 2.3-3.4 3.7-4 3.9-3.2.8-2.9.5-5.5 2.6-2.1.2-3.4-3.1-5.2.6-2.6-1.5-2.2-1.3z"/><path d="m397.9 328.9-1.8 24.3-.9 18 .2 1.6 4 3.6 1.7.9h.9l.9-2.1 1.5 1.9 1.6.1.3-.2.2-1.1 2.8 1.4-.4 3.5 3.8.5 2.5 1 4.2.6 2.3 1.6 2.5-1.7 3.5.7 2.2 3.1 1.2.1v2.3l2.1.7 2.5-2.1 1.8.6 2.7.1.7 2.3 4.4 1.8 1.7-.3 1.9-4.2h1.3l1.1 2.1 4.2.8 3.4 1.3 3 .8 1.6-.7.7-2.7h4.5l1.9.9 2.7-1.9h1.4l.6 1.4h3.6l2-1.8 2.3.6 1.7 2.2 3 1.7 3.4.9 1.9 1.2-.3-37.6-1.4-10.9-.1-8.6-1.5-6.6-.6-6.8.1-4.3-12.6.3-46.3-.5-44.7-2.1-41.5-1.8-.4 10.7z"/><path d="m53.44 152.9 28.24 7.2 27.52 6.5 17 3.7 8.8-35.1 1.2-4.4 2.4-5.5-.7-1.3-2.5.1-1.3-1.8.6-1.5.4-3.3 4.7-5.7 1.9-.9.9-.8.7-2.7.8-1.1 3.9-5.7 3.7-4 .2-3.26-3.4-2.49-1.2-4.55-13.1-3.83-15.3-3.47-14.8.37-1.1-1.31-5.1 1.84-4.5-.48-2.4-1.58-1.3.54-4.68-.29-1.96-1.43-4.84-1.77-1.1-.07-4.45-1.27-1.76 1.52-6.26-.24-5.31-3.85.21-9.28-2.05-3.5-4.1-.6-.7-2.5-2.4-.5-5.8 2.1-2.3 6.5-3.2 10-3.2 6.5-5 14.1-6.5 13.6-8.1 12.6-1.9 2.9-.8 8.6-1.3 6 2.71 3.5z"/><path d="m722.6 186.2 1.3-.5 5.7-5.5.7 6.9 33.5-6.5 36.9-7.8 2.3 2.3 3.1.4 2 5.6 2.4 1.9 2.8.4.1.1-2.6 3.2v3.1l-1.9 3.1-.2 1.9 1.3 1.3-.2 1.9-2.4 1.1 1 3.4.2 1.1 2.8.3.9 2.5 5.9 3.9v.4l-3.1 3-1.5 2.2-1.7 2.8-2.7 1.2-1.4.3-2.1 1.3-1.6 1.4-22.4 4.3-38.7 7.8-11.3 1.4-3.9.7-5.1-22.4-4.3-25.9z"/><path d="m859.6 169.7-.8-4.4-1.6-6 5.7-1.5 1.5 1.3 3.4 4.3 2.8 4.4-2.8 1.4-1.3-.2-1.1 1.8-2.4 1.9-2.8 1.1z"/><path d="m745 407.6-2.1-1-1.9-5.6-2.5-2.3-2.5-.5-1.5-4.6-3-6.5-4.2-1.8-1.9-1.8-1.2-2.6-2.4-2-2.3-1.3-2.2-2.9-3.2-2.4-4.4-1.7-.4-1.4-2.3-2.8-.5-1.5-3.8-5.4-3.4.1-3.9-2.5-1.2-1.2-.2-1.4.6-1.6 2.7-1.3-.8-2 6.4-2.7 9.2-4.5 7.1-.9 16.4-.5 2.3 1.9 1.8 3.5 4.6-.8 12.6-1.5 2.7.8 12.5 7.4 10.1 8.3-5.3 5.4-2.6 6.1-.5 6.3-1.6.8-1.1 2.7-2.4.6-2.1 3.6-2.7 2.7-2.3 3.4-1.6.8-3.6 3.4-2.9.2 1 3.2-5 5.3-2.3 1.6z"/><path d="m457 175.1-.9 3.2.4 3 2.6 2-1.2 5.4-1.8 4.1 1.5 3.3.7 1.1-1.3.1-.7-1.6-.6-2-3.3-1.8-4.8-1.5-2.5-1.3-2.9.1-3.9.4-3.8 1.2-5.3-3.8-2.7-2.4-10.9.8-41.5-2.4-35.6-2.2 1.5-24.8 2.8-34 .4-5 56.9 3.9 56.9 1.7v2.7l-1.3 1.5-2 1.5-.1 2.2 1.1 2.2 4.1 3.4.5 2.7v35.9z"/><path d="m656.8 353.6-13.1 1.2-23.3 2.2-37.6 2.7-11.8.4.9-.6.9-4.5-1.2-3.6 3.9-2.3.4-2.5 1.2-4.3 3-9.5.5-5.6.3-.2 12.3-.2 13.6-.8.1-3.9 3.5-.1 30.4-3.3 54-5.2 10.3-1.5 7.6-.2 2.4-1.9 1.3.3-.1 3.3-.4 1.6-2.4 2.2-1.6 3.6-2-.4-2.4.9-2.2 3.3-1.4-.2-.8-1.2-1.1.4-4.3 4-.8 3.1-4.2 2.2-4.3 3.6-3.8 1.5-4.4 2.8-.6 3.6-2.5.5-2 1.7-.2 4.8z"/><path d="m268.8 419.6 37 3.6 29.3 1.9 7.4-97.7 54.4 2.4-1.7 23.3-1 18 .2 2 4.4 4.1 2 1.1h1.8l.5-1.2.7.9 2.4.2 1.1-.6v-.2l1 .5-.4 3.7 4.5.7 2.4.9 4.2.7 2.6 1.8 2.8-1.9 2.7.6 2.2 3.1.8.1v2.1l3.3 1.1 2.5-2.1 1.5.5 2.1.1.6 2.1 5.2 2 2.3-.5 1.9-4h.1l1.1 1.9 4.6.9 3.4 1.3 3.2 1 2.4-1.2.7-2.3h3.6l2.1 1 3-2h.4l.5 1.4h4.7l1.9-1.8 1.3.4 1.7 2.1 3.3 1.9 3.4 1 2.5 1.4 2.7 2 3.1-1.2 2.1.8.7 20 .7 9.5.6 4.1 2.6 4.4.9 4.5 4.2 5.9.3 3.1.6.8-.7 7.7-2.9 4.8 1.3 2.6-.5 2.4-.8 7.2-1.3 3 .3 4.2-5.6 1.6-9.9 4.5-1 1.9-2.6 1.9-2.1 1.5-1.3.8-5.7 5.3-2.7 2.1-5.3 3.2-5.7 2.4-6.3 3.4-1.8 1.5-5.8 3.6-3.4.6-3.9 5.5-4 .3-1 1.9 2.3 1.9-1.5 5.5-1.3 4.5-1.1 3.9-.8 4.5.8 2.4 1.8 7 1 6.1 1.8 2.7-1 1.5-3.1 1.9-5.7-3.9-5.5-1.1-1.3.5-3.2-.6-4.2-3.1-5.2-1.1-7.6-3.4-2.1-3.9-1.3-6.5-3.2-1.9-.6-2.3.6-.6.3-3.4-1.3-.6-.6-1 1.3-4.4-1.6-2.3-3.2-1.3-3.4-4.4-3.6-6.6-4.2-2.6.2-1.9-5.3-12.3-.8-4.2-1.8-1.9-.2-1.5-6-5.3-2.6-3.1v-1.1l-2.6-2.1-6.8-1.1-7.4-.6-3.1-2.3-4.5 1.8-3.6 1.5-2.3 3.2-1 3.7-4.4 6.1-2.4 2.4-2.6-1-1.8-1.1-1.9-.6-3.9-2.3v-.6l-1.8-1.9-5.2-2.1-7.4-7.8-2.3-4.7v-8.1l-3.2-6.5-.5-2.7-1.6-1-1.1-2.1-5-2.1-1.3-1.6-7.1-7.9-1.3-3.2-4.7-2.3-1.5-4.4-2.6-2.9-1.7-.5zm174.4 141.7-.6-7.1-2.7-7.2-.6-7 1.5-8.2 3.3-6.9 3.5-5.4 3.2-3.6.6.2-4.8 6.6-4.4 6.5-2 6.6-.3 5.2.9 6.1 2.6 7.2.5 5.2.2 1.5z"/><path d="m214.4 299.9 24.6 3.6 1.9-13.7 7-50.5 2.3-22-32.2-3.5 2.2-13.1 1.8-10.6-34.7-6.1-12.5-2.5-10.6 52.9-5.4 30-3.3 15.4-1.7 9.2z"/><path d="m820.7 259.2-.2 2.8-2.9 3.8-.4 4.6.5 3.4-1.8 5-2.2 1.9-1.5-4.6.4-5.4 1.6-4.2.7-3.3-.1-1.7zm-60.3 44.6-38.6 5.6-4.8-.1-2.2-.3-2.5 1.9-7.3.1-10.3 1.6-6.7.6 4.1-2.6 4.1-2.3v-2.1l5.7-7.3 4.1-3.7 2.2-2.5 3.6 4.3 3.8.9 2.7-1 2-1.5 2.4 1.2 4.6-1.3 1.7-4.4 2.4.7 3.2-2.3 1.6.4 2.8-3.2.2-2.7-.8-1.2 4.8-10.5 1.8-5.2.5-4.7.7-.2 1.1 1.7 1.5 1.2 3.9-.2 1.7-8.1 3-.6.8-2.6 2.8-2.2 1.1-2.1 1.8-4.3.1-4.6 3.6 1.4 6.6 3.1.3-5.2 3.4 1.2-.6 2.9 8.6 3.1 1.4 1.8-.8 3.3-1.3 1.3-.5 1.7.5 2.4 2 1.3 3.9 1.4 2.9 1 4.9.9 2.2 2.1 3.2.4.9 1.2-.4 4.7 1.4 1.1-.5 1.9 1.2.8-.2 1.4-2.7-.1.1 1.6 2.3 1.5.1 1.4 1.8 1.8.5 2.5-2.6 1.4 1.6 1.5 5.8-1.7 3.7 6.2z"/><path d="m818.7 105.3 2.4 6.5.8 5.3-1 3.9 2.5 4.4.9 2.3-.7 2.6 3.3 1.5 2.9 10.8v5.3l11.5-2.1-1-1.1.6-1.9.2-4.3-1-1.4.2-4.7.8-9.3v-8.5l-1.1-1.8v-1.6l2.8-1.1 3.5-4.4v-3.6l-1.9-2.7-.3-5.79-26.1 6.79z"/><path d="m60.5 61.7-2.3-4.3-4.1-.7-.4-2.4-2.5-.6-2.9-.5-1.8 1-2.3-2.9.3-2.9 2.7-.3 1.6-4-2.6-1.1.2-3.7 4.4-.6-2.7-2.7-1.5-7.1.6-2.9v-7.9l-1.8-3.2 2.3-9.4 2.1.5 2.4 2.9 2.7 2.6 3.2 1.9 4.5 2.1 3.1.6 2.9 1.5 3.4 1 2.3-.2v-2.4l1.3-1.1 2.1-1.3.3 1.1.3 1.8-2.3.5-.3 2.1 1.8 1.5 1.1 2.4.6 1.9 1.5-.2.2-1.3-1-1.3-.5-3.2.8-1.8-.6-1.5v-2.6l1.8-3.6-1.1-2.6-2.4-4.8.3-.8 1.4-.8 4.4 1.5 9.7 2.7 8.6 1.9 20 5.7 23 5.7 15 3.49-4.8 17.56-4.5 20.83-3.4 16.25-.4 9.18-12.9-3.72-15.3-3.47-14.5.32-1.1-1.53-5.7 2.09-3.9-.42-2.6-1.79-1.7.65-4.15-.25-1.72-1.32-5.16-1.82-1.18-.16-4.8-1.39-1.92 1.65-5.65-.25-4.61-3.35zm9.6-55.4 2-.2.5 1.4 1.5-1.6h2.3l.8 1.5-1.5 1.7.6.8-.7 2-1.4.4s-.9.1-.9-.2 1.5-2.6 1.5-2.6l-1.7-.6-.3 1.5-.7.6-1.5-2.3z"/><path d="m527.4 103.9 2.9.5 2.9-.6 7.4-3.2 2.9-1.9 2.1-.8 1.9 1.5-1.1 1.1-1.9 3.1-.6 1.9 1 .6 1.8-1 1.1-.2 2.7.8.6 1.1 1.1.2.6-1.1 4 5.3 8.2 1.2 8.2 2.2 2.6 1.1 12.3 2.6 1.6 2.3 3.6 1.2 1.7 10.2 1.6 1.4 1.5.9-1.1 2.3-1.8 1.6-2.1 4.7-1.3 2.4.2 1.8 1.5.3 1.1-1.9 1.5-.8.8-2.3 1.9-1.8 2.7-4 4.2-6.3.8-.5.3 1-.2 2.3-2.9 6.8-2.7 5.7-.5 3.2-.6 2.6.8 1.3-.2 2.7-1.9 2.4-.5 1.8.6 3.6.6 3.4-1.5 2.6-.8 2.9-1 3.1 1.1 2.4.6 6.1 1.6 4.5-.2 3-15.9 1.8-17.5 1h-12.7l-.7-1.5-2.9-.4-2.6-1.3-2.3-3.7-.3-3.6 2-2.9-.5-1.4-2.1-2.2-.8-3.3-.6-6.8-2.1-2.5-7-4.5-3.8-5.4-3.4-1-2.2-2.8h-3.2l-2.9-3.3-.5-6.5.1-3.8 1.5-3.1-.8-3.2-2.5-2.8 1.8-5.4 5.2-3.8 1.6-1.9-.2-8.1.2-2.8 2.4-2.8z"/><path d="m744.9 248.3 5.8-6 2.6-.8 1.6-1.5 1.5-2.2 1.1.3 3.1-.2 4.6-3.6 1.5-.5 1.3 1 2.6 1.2 3 3-.4 4.3-5.4-2.6-4.8-1.8-.1 5.9-2.6 5.7-2.9 2.4-.8 2.3-3 .5-1.7 8.1-2.8.2-1.1-1-1.2-2-2.2.5-.5 5.1-1.8 5.1-5 11 .9 1.4-.1 2-2.2 2.5-1.6-.4-3.1 2.3-2.8-.8-1.8 4.9-3.8 1-2.5-1.3-2.5 1.9-2.3.7-3.2-.8-3.8-4.5-3.5-2.2-2.5-2.5-2.9-3.7-.5-2.3-2.8-1.7-.6-1.3-.2-5.6.3.1 2.4-.2 1.8-1v-2.2l1.7-1.5.1-5.2.9-3.6 1.1-.7.4.3 1 1.1 1.7.5 1.1-1.3-1-3.1v-1.6l3.1-4.6 1.2-1.3 2 .5 2.6-1.8 3.1-3.4 2.4-4.1.2-5.6.5-4.8v-4.9l-1.1-3 .9-1.3.8-.7 4.3 19.3 4.3-.8 11.2-1.3z"/><path d="m339 155.9-1.5 25.4-4.4 44-2.7-.3-83.3-9.1-27.9-3 2-12 6.9-41 3.8-24.2 1.3-11.2 48.2 7 59.1 6.5z"/></g><path d="m152.1 20.7-.3 85.4 1.6 1 3.1.2 1.5-1.1h2.6l.2 2.9 7 6.8.5 2.6 3.4-1.9.6-.2.3-3.1 1.5-1.6 1.1-.2 1.9-1.5 3.1 2.1.6 2.9 1.9 1.1 1.1 2.4 3.9 1.8 3.4 6 2.7 3.9 2.3 2.7 1.5 3.7 5 1.8 5.2 2.1 1 4.4.5 3.1-1 3.4-1.8 2.3-1.6-.8-1.5-3.1-2.7-1.5-1.8-1.1-.8.8 1.5 2.7.2 3.7-1.1.5-1.9-1.9-2.1-1.3.5 1.6 1.3 1.8-.8.8s-.8-.3-1.3-1c-.5-.6-2.1-3.4-2.1-3.4l-1-2.3s-.3 1.3-1 1c-.6-.3-1.3-1.5-1.3-1.5l1.8-1.9-1.5-1.5v-5h-.8l-.8 3.4-1.1.5-1-3.7-.6-3.7-.8-.5.3 5.7v1.1l-1.5-1.3-3.6-6-2.1-.5-.6-3.7-1.6-2.9-1.6-1.1v-2.3l2.1-1.3-.5-.3-2.6.6-3.4-2.4-2.6-2.9-4.8-2.6-4-2.6 1.3-3.2v-1.6l-1.8 1.6-2.9 1.1-3.7-1.1-5.7-2.4h-5.5l-.6.5-6.5-3.9-2.1-.3-2.7-5.8-3.6.3-3.6 1.5.5 4.5 1.1-2.9 1 .3-1.5 4.4 3.2-2.7.6 1.6-3.9 4.4-1.3-.3-.5-1.9-1.3-.8-1.3 1.1-2.7-1.8-3.1 2.1-1.8 2.1-3.4 2.1-4.7-.2-.5-2.1 3.7-.6v-1.3l-2.3-.6 1-2.4 2.3-3.9v-1.8l.2-.8 4.4-2.3 1 1.3h2.7l-1.3-2.6-3.7-.3-5 2.7-2.4 3.4-1.8 2.6-1.1 2.3-4.2 1.5-3.1 2.6-.3 1.6 2.3 1 .8 2.1-2.7 3.2-6.5 4.2-7.8 4.2-2.1 1.1-5.3 1.1-5.3 2.3 1.8 1.3-1.5 1.5-.5 1.1-2.7-1-3.2.2-.8 2.3h-1l.3-2.4-3.6 1.3-2.9 1-3.4-1.3-2.9 1.9h-3.2l-2.1 1.3-1.6.8-2.1-.3-2.6-1.1-2.3.6-1 1-1.6-1.1v-1.9l3.1-1.3 6.3.6 4.4-1.6 2.1-2.1 2.9-.6 1.8-.8 2.7.2 1.6 1.3 1-.3 2.3-2.7 3.1-1 3.4-.6 1.3-.3.6.5h.8l1.3-3.7 4-1.5 1.9-3.7 2.3-4.5 1.6-1.5.3-2.6-1.6 1.3-3.4.6-.6-2.4-1.3-.3-1 1-.2 2.9-1.5-.2-1.5-5.8-1.3 1.3-1.1-.5-.3-1.9-4 .2-2.1 1.1-2.6-.3 1.5-1.5.5-2.6-.6-1.9 1.5-1 1.3-.2-.6-1.8v-4.4l-1-1-.8 1.5h-6.1l-1.5-1.3-.6-3.9-2.1-3.6v-1l2.1-.8.2-2.1 1.1-1.1-.8-.5-1.3.5-1.1-2.7 1-5 4.5-3.2 2.6-1.6 1.9-3.7 2.7-1.3 2.6 1.1.3 2.4 2.4-.3 3.2-2.4 1.6.6 1 .6h1.6l2.3-1.3.8-4.4s.3-2.9 1-3.4c.6-.5 1-1 1-1l-1.1-1.9-2.6.8-3.2.8-1.9-.5-3.6-1.8-5-.2-3.6-3.7.5-3.9.6-2.4-2.1-1.8-1.9-3.7.5-.8 6.8-.5h2.1l1 1h.6l-.2-1.6 3.9-.6 2.6.3 1.5 1.1-1.5 2.1-.5 1.5 2.7 1.6 5 1.8 1.8-1-2.3-4.4-1-3.2 1-.8-3.4-1.9-.5-1.1.5-1.6-.8-3.9-2.9-4.7-2.4-4.2 2.9-1.9h3.2l1.8.6 4.2-.2 3.7-3.6 1.1-3.1 3.7-2.4 1.6 1 2.7-.6 3.7-2.1 1.1-.2 1 .8 4.5-.2 2.7-3.1h1.1l3.6 2.4 1.9 2.1-.5 1.1.6 1.1 1.6-1.6 3.9.3.3 3.7 1.9 1.5 7.1.6 6.3 4.2 1.5-1 5.2 2.6 2.1-.6 1.9-.8 4.8 1.9zm-115.1 28.9 2.1 5.3-.2 1-2.9-.3-1.8-4-1.8-1.5h-2.4l-.2-2.6 1.8-2.4 1.1 2.4 1.5 1.5zm-2.6 33.5 3.7.8 3.7 1 .8 1-1.6 3.7-3.1-.2-3.4-3.6zm-20.7-14.1 1.1 2.6 1.1 1.6-1.1.8-2.1-3.1v-1.9zm-13.7 73.1 3.4-2.3 3.4-1 2.6.3.5 1.6 1.9.5 1.9-1.9-.3-1.6 2.7-.6 2.9 2.6-1.1 1.8-4.4 1.1-2.7-.5-3.7-1.1-4.4 1.5-1.6.3zm48.9-4.5 1.6 1.9 2.1-1.6-1.5-1.3zm2.9 3 1.1-2.3 2.1.3-.8 1.9h-2.4zm23.6-1.9 1.5 1.8 1-1.1-.8-1.9zm8.8-12.5 1.1 5.8 2.9.8 5-2.9 4.4-2.6-1.6-2.4.5-2.4-2.1 1.3-2.9-.8 1.6-1.1 1.9.8 3.9-1.8.5-1.5-2.4-.8.8-1.9-2.7 1.9-4.7 3.6-4.8 2.9zm42.3-19.8 2.4-1.5-1-1.8-1.8 1z" fill="#d3d3d3" transform="translate(16 31)"/><g><g transform="translate(307 249)"><use fill="#000" filter="url(#b)" xlink:href="#a"/><use fill="#fc022c" fill-rule="evenodd" xlink:href="#a"/></g><g transform="translate(297 114)"><use fill="#000" filter="url(#d)" xlink:href="#c"/><use fill="#fc022c" fill-rule="evenodd" xlink:href="#c"/></g><g transform="translate(328 140)"><use fill="#000" filter="url(#f)" xlink:href="#e"/><use fill="#fc022c" fill-rule="evenodd" xlink:href="#e"/></g><g transform="translate(340 62)"><use fill="#000" filter="url(#h)" xlink:href="#g"/><use fill="#fc022c" fill-rule="evenodd" xlink:href="#g"/></g><g transform="translate(462 108)"><use fill="#000" filter="url(#j)" xlink:href="#i"/><use fill="#fc022c" fill-rule="evenodd" xlink:href="#i"/></g><g transform="translate(415 146)"><use fill="#000" filter="url(#l)" xlink:href="#k"/><use fill="#fc022c" fill-rule="evenodd" xlink:href="#k"/></g><g transform="translate(441 233)"><use fill="#000" filter="url(#n)" xlink:href="#m"/><use fill="#fc022c" fill-rule="evenodd" xlink:href="#m"/></g><g transform="translate(415 327)"><use fill="#000" filter="url(#p)" xlink:href="#o"/><use fill="#fc022c" fill-rule="evenodd" xlink:href="#o"/></g><g transform="translate(505 297)"><use fill="#000" filter="url(#r)" xlink:href="#q"/><use fill="#fc022c" fill-rule="evenodd" xlink:href="#q"/></g><g transform="translate(500 327)"><use fill="#000" filter="url(#t)" xlink:href="#s"/><use fill="#fc022c" fill-rule="evenodd" xlink:href="#s"/></g><g transform="translate(546 249)"><use fill="#000" filter="url(#v)" xlink:href="#u"/><use fill="#fc022c" fill-rule="evenodd" xlink:href="#u"/></g><g transform="translate(573 274)"><use fill="#000" filter="url(#x)" xlink:href="#w"/><use fill="#fc022c" fill-rule="evenodd" xlink:href="#w"/></g><g transform="translate(747 94)"><use fill="#000" filter="url(#z)" xlink:href="#y"/><use fill="#fc022c" fill-rule="evenodd" xlink:href="#y"/></g><g transform="translate(819 162)"><use fill="#000" filter="url(#B)" xlink:href="#A"/><use fill="#fc022c" fill-rule="evenodd" xlink:href="#A"/></g><g transform="translate(873 162)"><use fill="#000" filter="url(#D)" xlink:href="#C"/><use fill="#fc022c" fill-rule="evenodd" xlink:href="#C"/></g><g transform="translate(824 228)"><use fill="#000" filter="url(#F)" xlink:href="#E"/><use fill="#fc022c" fill-rule="evenodd" xlink:href="#E"/></g><g transform="translate(910 223)"><use fill="#000" filter="url(#H)" xlink:href="#G"/><use fill="#fc022c" fill-rule="evenodd" xlink:href="#G"/></g><g transform="translate(964 313)"><use fill="#000" filter="url(#J)" xlink:href="#I"/><use fill="#fc022c" fill-rule="evenodd" xlink:href="#I"/></g><g transform="translate(1001 265)"><use fill="#000" filter="url(#L)" xlink:href="#K"/><use fill="#fc022c" fill-rule="evenodd" xlink:href="#K"/></g><g transform="translate(991 167)"><use fill="#000" filter="url(#N)" xlink:href="#M"/><use fill="#fc022c" fill-rule="evenodd" xlink:href="#M"/></g><g transform="translate(1048 207)"><use fill="#000" filter="url(#P)" xlink:href="#O"/><use fill="#fc022c" fill-rule="evenodd" xlink:href="#O"/></g><g transform="translate(1054 167)"><use fill="#000" filter="url(#R)" xlink:href="#Q"/><use fill="#fc022c" fill-rule="evenodd" xlink:href="#Q"/></g><g transform="translate(1044 130)"><use fill="#000" filter="url(#T)" xlink:href="#S"/><use fill="#fc022c" fill-rule="evenodd" xlink:href="#S"/></g><g transform="translate(1069 108)"><use fill="#000" filter="url(#V)" xlink:href="#U"/><use fill="#fc022c" fill-rule="evenodd" xlink:href="#U"/></g><g transform="translate(1090 124)"><use fill="#000" filter="url(#X)" xlink:href="#W"/><use fill="#fc022c" fill-rule="evenodd" xlink:href="#W"/></g><g transform="translate(1090 156)"><use fill="#000" filter="url(#Z)" xlink:href="#Y"/><use fill="#fc022c" fill-rule="evenodd" xlink:href="#Y"/></g><g transform="translate(1075 135)"><use fill="#000" filter="url(#ab)" xlink:href="#aa"/><use fill="#fc022c" fill-rule="evenodd" xlink:href="#aa"/></g><g transform="translate(1111 94)"><use fill="#000" filter="url(#ad)" xlink:href="#ac"/><use fill="#fc022c" fill-rule="evenodd" xlink:href="#ac"/></g><g transform="translate(319 301)"><use fill="#000" filter="url(#af)" xlink:href="#ae"/><use fill="#fc022c" fill-rule="evenodd" xlink:href="#ae"/></g><g transform="translate(318 265)"><use fill="#000" filter="url(#ah)" xlink:href="#ag"/><use fill="#fc022c" fill-rule="evenodd" xlink:href="#ag"/></g><g transform="translate(340 317)"><use fill="#000" filter="url(#aj)" xlink:href="#ai"/><use fill="#fc022c" fill-rule="evenodd" xlink:href="#ai"/></g><g transform="translate(142 113)"><use fill="#000" filter="url(#al)" xlink:href="#ak"/><use fill="#fc022c" fill-rule="evenodd" xlink:href="#ak"/></g></g></g></svg>