<svg id="41eb595c-6d5d-447a-a7b0-b6d260fda23e" data-name="Layer 1" xmlns="http://www.w3.org/2000/svg" viewBox="0 0 378.97 79.85"><title>usasa-logo-primary</title><path d="M377.87,272.88c-18.88,0-25.62-2.78-28.71-5.9l-2.46,5.9H234.62c-17.81,0-24.82-2.47-28.15-5.37l-2.24,5.37H91.41c-22,0-27.53-3.78-30-7.48a8.08,8.08,0,0,1-.9-7.57L80.21,210h41.42l-2.75,6.67H264.4c14.75,0,23.4,1.6,27.82,5.28l2.2-5.28H407.66c17.4,0,26.31,2.23,29.79,7.46a8.09,8.09,0,0,1,.9,7.58L421.2,272.88Z" transform="translate(-59.95 -209.97)" fill="#fff"/><path d="M128.25,260.29s-2.57,6.16-29.91,6.16H91.41c-27.53,0-25-6.16-25-6.16l18.07-43.91H112L94,260.29h6.93l15.52-37.23h27.34Zm160.92-31.07-15.51,37.24h-39c-27.54,0-25-6.16-25-6.16l7.78-18.66s2.57-6.16,30.1-6.16h11.7l2.61-6.25-8.08,0c-24.21,0-29.17,5.18-30,6.43h-.06L229,223.06H264.4C291.75,223.06,289.18,229.22,289.18,229.22Zm-32.52,12.41h-6.93L242,260.29h6.93Zm-73.71,0H176l5.17-12.41h6.93l-2.61,6.25h31.11l5.17-12.41H150.89l-7.74,18.57s-2.6,6.25,24.93,6.25h12.27l-5.17,12.41h-6.93l2.6-6.25H138l-3.67,8.81s-.81,1.91-6.22,3.6H200l7.74-18.57S210.3,241.63,183,241.63Z" transform="translate(-59.95 -209.97)" fill="#cf0a2c"/><path d="M407.66,223.06H372.21l-5.27,12.59H367c.84-1.25,5.8-6.43,30-6.43l8.08,0-2.6,6.25h-11.7c-27.54,0-30.1,6.16-30.1,6.16l-7.78,18.66s-2.57,6.16,25,6.16h39l15.52-37.24S435,223.06,407.66,223.06Zm-14.85,37.23h-6.93l7.78-18.66h6.93Zm-42.64-12.41-7.74,18.57H280.61L285.79,254h27.54l-2.61,6.25h6.93l5.17-12.41h-6.93c-27.54,0-24.93-6.25-24.93-6.25l7.74-18.57H365l-5.17,12.41H328l2.6-6.25h-6.93l-5.17,12.41h6.93C352.77,241.63,350.17,247.88,350.17,247.88Z" transform="translate(-59.95 -209.97)" fill="#1d4f90"/><path d="M66.86,279.45h1.89V287c0,.55,0,1.22.88,1.22s.86-.66.86-1.24v-7.54h1.89v7.87c0,1.32-.56,2.5-2.79,2.5-1.76,0-2.72-.88-2.72-2.55Z" transform="translate(-59.95 -209.97)" fill="#231f20"/><path d="M79.71,289.61H77.35L75.54,282l.17,7.61H74V279.45h2.4l1.83,7.45L78,279.45h1.71Z" transform="translate(-59.95 -209.97)" fill="#231f20"/><path d="M81.33,279.45h1.86v10.16H81.33Z" transform="translate(-59.95 -209.97)" fill="#231f20"/><path d="M84.08,279.45H89.7v1.47H87.83v8.69H85.95v-8.69H84.08Z" transform="translate(-59.95 -209.97)" fill="#231f20"/><path d="M90.61,279.44h4.92V281h-3v2.39h2.86v1.54H92.48V288h3.18v1.57h-5Z" transform="translate(-59.95 -209.97)" fill="#231f20"/><path d="M97.07,279.45h3a2.46,2.46,0,0,1,2,.63,2.7,2.7,0,0,1,.6,2v4.75c0,1.41-.22,2.73-2.58,2.73h-3Zm1.87,8.68a8,8,0,0,0,1.18,0c.68-.1.68-.69.68-1.06V282c0-.91-.3-1-1.12-1h-.73Z" transform="translate(-59.95 -209.97)" fill="#231f20"/><path d="M107.11,286H109v1.18c0,.59,0,1.18.91,1.18s.92-.6.92-1.51a1.33,1.33,0,0,0-.63-1.35l-1.78-1.19a2.52,2.52,0,0,1-1.21-2.39,2.47,2.47,0,0,1,.73-2.1,3.18,3.18,0,0,1,2-.6c1.09,0,2.59.45,2.59,2.19v1h-1.86v-.73c0-.49,0-1-.82-1-.5,0-.86.19-.86,1s.19,1,.59,1.31l1.84,1.25a3.51,3.51,0,0,1,1,1,2.66,2.66,0,0,1,.27,1.6,3.56,3.56,0,0,1-.33,2,2.74,2.74,0,0,1-2.42,1c-1.6,0-2.82-.6-2.82-2.32Z" transform="translate(-59.95 -209.97)" fill="#231f20"/><path d="M113,279.45h5.63v1.47h-1.87v8.69h-1.89v-8.69H113Z" transform="translate(-59.95 -209.97)" fill="#231f20"/><path d="M120.66,279.45h2.14l1.9,10.16h-1.9l-.24-1.65h-1.73l-.27,1.65h-1.87Zm.4,6.94h1.29l-.62-4.36Z" transform="translate(-59.95 -209.97)" fill="#231f20"/><path d="M124.42,279.45H130v1.47h-1.87v8.69h-1.89v-8.69h-1.87Z" transform="translate(-59.95 -209.97)" fill="#231f20"/><path d="M130.67,279.44h4.92V281h-3v2.39h2.86v1.54h-2.86V288h3.18v1.57h-5Z" transform="translate(-59.95 -209.97)" fill="#231f20"/><path d="M136.87,286h1.87v1.18c0,.59,0,1.18.91,1.18s.92-.6.92-1.51a1.33,1.33,0,0,0-.63-1.35l-1.78-1.19a2.53,2.53,0,0,1-1.21-2.39,2.47,2.47,0,0,1,.73-2.1,3.18,3.18,0,0,1,2-.6c1.09,0,2.59.45,2.59,2.19v1h-1.86v-.73c0-.49,0-1-.82-1-.5,0-.86.19-.86,1s.19,1,.59,1.31l1.84,1.25a3.51,3.51,0,0,1,1,1,2.66,2.66,0,0,1,.27,1.6,3.56,3.56,0,0,1-.33,2,2.74,2.74,0,0,1-2.42,1c-1.6,0-2.82-.6-2.82-2.32Z" transform="translate(-59.95 -209.97)" fill="#231f20"/><path d="M152.2,287.44a2.17,2.17,0,0,1-.55,1.67,3,3,0,0,1-2.23.72c-2.29,0-2.85-1.09-2.85-2.39v-5.68a2.46,2.46,0,0,1,.53-1.74,3.1,3.1,0,0,1,2.3-.78,3.31,3.31,0,0,1,2.12.63,2.19,2.19,0,0,1,.68,1.93Zm-1.89-5.51c0-.53,0-1.27-.91-1.27s-1,.78-1,1.34v5.12c0,.58,0,1.24.95,1.24s.92-.7.92-1.19Z" transform="translate(-59.95 -209.97)" fill="#231f20"/><path d="M153.93,279.45h5V281h-3.08v2.55h2.91v1.51h-2.91v4.53h-1.88Z" transform="translate(-59.95 -209.97)" fill="#231f20"/><path d="M163.76,279.45h2.14l1.9,10.16h-1.9l-.24-1.65h-1.73l-.27,1.65h-1.87Zm.4,6.94h1.29l-.62-4.36Z" transform="translate(-59.95 -209.97)" fill="#231f20"/><path d="M168.81,279.45h3l1.21,7.11,1.19-7.11h3v10.16H175.4l.17-8.81-1.64,8.81h-1.76l-1.67-8.81.14,8.81h-1.84Z" transform="translate(-59.95 -209.97)" fill="#231f20"/><path d="M178.89,279.44h4.92V281h-3v2.39h2.86v1.54h-2.86V288h3.18v1.57h-5Z" transform="translate(-59.95 -209.97)" fill="#231f20"/><path d="M185.35,279.44h3.74c1.83,0,1.83,1.22,1.83,2.16v1.09c0,1.3-.4,1.53-1.31,1.73a1.63,1.63,0,0,1,1.38,1.76v2.07a1.67,1.67,0,0,0,.43,1.37h-2.06a2.37,2.37,0,0,1-.27-1.12v-2.17c0-.69,0-1.18-1-1.18h-.89v4.47h-1.87Zm1.87,4.24h1c.85,0,.86-.46.86-1v-1c0-.83-.45-.83-.86-.83h-1Z" transform="translate(-59.95 -209.97)" fill="#231f20"/><path d="M192.62,279.45h1.86v10.16h-1.86Z" transform="translate(-59.95 -209.97)" fill="#231f20"/><path d="M199.9,283.16v-1.3c0-.76-.13-1.19-.95-1.19s-.86.65-.86,1.11v5.44c0,.6.1,1.15.94,1.15s.88-.63.88-1.25V285.8h1.86v1.44c0,.82,0,2.59-2.76,2.59a3.84,3.84,0,0,1-2-.49,2,2,0,0,1-.81-1.89v-5.52a2.5,2.5,0,0,1,.5-1.89,3.1,3.1,0,0,1,2.27-.81c2.76,0,2.76,1.64,2.76,2.36v1.57Z" transform="translate(-59.95 -209.97)" fill="#231f20"/><path d="M204.72,279.45h2.14l1.9,10.16h-1.9l-.24-1.65h-1.73l-.27,1.65h-1.87Zm.4,6.94h1.29L205.8,282Z" transform="translate(-59.95 -209.97)" fill="#231f20"/><path d="M212.75,286h1.87v1.18c0,.59,0,1.18.91,1.18s.92-.6.92-1.51a1.33,1.33,0,0,0-.63-1.35L214,284.33a2.53,2.53,0,0,1-1.21-2.39,2.47,2.47,0,0,1,.73-2.1,3.18,3.18,0,0,1,2-.6c1.09,0,2.59.45,2.59,2.19v1h-1.86v-.73c0-.49,0-1-.82-1-.5,0-.86.19-.86,1s.19,1,.59,1.31l1.84,1.25a3.51,3.51,0,0,1,1,1,2.66,2.66,0,0,1,.27,1.6,3.57,3.57,0,0,1-.33,2,2.74,2.74,0,0,1-2.42,1c-1.6,0-2.82-.6-2.82-2.32Z" transform="translate(-59.95 -209.97)" fill="#231f20"/><path d="M225.36,289.61H223L221.19,282l.17,7.61H219.6V279.45H222l1.83,7.45-.19-7.45h1.71Z" transform="translate(-59.95 -209.97)" fill="#231f20"/><path d="M232.71,287.44a2.17,2.17,0,0,1-.55,1.67,3,3,0,0,1-2.23.72c-2.29,0-2.85-1.09-2.85-2.39v-5.68a2.46,2.46,0,0,1,.53-1.74,3.1,3.1,0,0,1,2.3-.78,3.31,3.31,0,0,1,2.12.63,2.19,2.19,0,0,1,.68,1.93Zm-1.89-5.51c0-.53,0-1.27-.91-1.27s-1,.78-1,1.34v5.12c0,.58,0,1.24.95,1.24s.92-.7.92-1.19Z" transform="translate(-59.95 -209.97)" fill="#231f20"/><path d="M233.54,279.45h1.93l1,7.65,1.11-7.65h1.77l1.06,7.65,1.06-7.65h1.9l-2,10.16h-2l-1-6.92-1.11,6.92h-2Z" transform="translate(-59.95 -209.97)" fill="#231f20"/><path d="M244.43,279.45h3.15a2.68,2.68,0,0,1,1.55.3,1.87,1.87,0,0,1,.73,1.77v.91c0,1.32-.47,1.57-1.19,1.71,1.21.23,1.29.76,1.29,1.86v1.44a2.05,2.05,0,0,1-.69,1.86,2.92,2.92,0,0,1-1.64.32h-3.21Zm1.87,4a9,9,0,0,0,1.21,0c.37-.09.5-.39.5-.91,0-.95,0-1-.07-1.21-.12-.33-.42-.42-.89-.42h-.75Zm0,4.68h.78c.78,0,1.07-.09,1.07-1v-1.19c0-.83-.24-1-1-1h-.81Z" transform="translate(-59.95 -209.97)" fill="#231f20"/><path d="M257.1,287.44a2.17,2.17,0,0,1-.55,1.67,3,3,0,0,1-2.23.72c-2.29,0-2.85-1.09-2.85-2.39v-5.68A2.45,2.45,0,0,1,252,280a3.1,3.1,0,0,1,2.3-.78,3.31,3.31,0,0,1,2.12.63,2.19,2.19,0,0,1,.68,1.93Zm-1.89-5.51c0-.53,0-1.27-.91-1.27s-1,.78-1,1.34v5.12c0,.58,0,1.24.95,1.24s.92-.7.92-1.19Z" transform="translate(-59.95 -209.97)" fill="#231f20"/><path d="M260,279.45h2.14l1.9,10.16h-1.9L261.9,288h-1.73l-.27,1.65H258Zm.4,6.94h1.29l-.62-4.36Z" transform="translate(-59.95 -209.97)" fill="#231f20"/><path d="M265.06,279.44h3.74c1.83,0,1.83,1.22,1.83,2.16v1.09c0,1.3-.4,1.53-1.31,1.73a1.63,1.63,0,0,1,1.38,1.76v2.07a1.66,1.66,0,0,0,.43,1.37h-2.06a2.37,2.37,0,0,1-.27-1.12v-2.17c0-.69,0-1.18-1-1.18h-.89v4.47h-1.87Zm1.87,4.24h1c.85,0,.86-.46.86-1v-1c0-.83-.45-.83-.86-.83h-1Z" transform="translate(-59.95 -209.97)" fill="#231f20"/><path d="M272.33,279.45h3a2.46,2.46,0,0,1,2,.63,2.7,2.7,0,0,1,.6,2v4.75c0,1.41-.22,2.73-2.58,2.73h-3Zm1.87,8.68a7.93,7.93,0,0,0,1.18,0c.68-.1.68-.69.68-1.06V282c0-.91-.3-1-1.12-1h-.73Z" transform="translate(-59.95 -209.97)" fill="#231f20"/><path d="M283.64,279.45h2.14l1.9,10.16h-1.9l-.25-1.65h-1.73l-.27,1.65h-1.87Zm.4,6.94h1.29l-.62-4.36Z" transform="translate(-59.95 -209.97)" fill="#231f20"/><path d="M294.45,289.61h-2.36L290.27,282l.17,7.61h-1.75V279.45h2.4l1.83,7.45-.19-7.45h1.71Z" transform="translate(-59.95 -209.97)" fill="#231f20"/><path d="M296.06,279.45h3a2.46,2.46,0,0,1,2,.63,2.69,2.69,0,0,1,.61,2v4.75c0,1.41-.22,2.73-2.58,2.73h-3Zm1.87,8.68a7.94,7.94,0,0,0,1.18,0c.68-.1.68-.69.68-1.06V282c0-.91-.3-1-1.12-1h-.73Z" transform="translate(-59.95 -209.97)" fill="#231f20"/><path d="M306,279.45h5V281h-3.08v2.55h2.91v1.51h-2.91v4.53H306Z" transform="translate(-59.95 -209.97)" fill="#231f20"/><path d="M312.13,279.44h3.74c1.83,0,1.83,1.22,1.83,2.16v1.09c0,1.3-.4,1.53-1.31,1.73a1.63,1.63,0,0,1,1.38,1.76v2.07a1.67,1.67,0,0,0,.43,1.37h-2.06a2.37,2.37,0,0,1-.27-1.12v-2.17c0-.69,0-1.18-1-1.18H314v4.47h-1.87Zm1.87,4.24h1c.85,0,.86-.46.86-1v-1c0-.83-.45-.83-.86-.83h-1Z" transform="translate(-59.95 -209.97)" fill="#231f20"/><path d="M319.11,279.44H324V281h-3v2.39h2.86v1.54H321V288h3.18v1.57h-5Z" transform="translate(-59.95 -209.97)" fill="#231f20"/><path d="M325.57,279.44h4.92V281h-3v2.39h2.86v1.54h-2.86V288h3.18v1.57h-5Z" transform="translate(-59.95 -209.97)" fill="#231f20"/><path d="M331.48,286h1.87v1.18c0,.59,0,1.18.91,1.18s.92-.6.92-1.51a1.33,1.33,0,0,0-.63-1.35l-1.78-1.19a2.52,2.52,0,0,1-1.21-2.39,2.47,2.47,0,0,1,.73-2.1,3.18,3.18,0,0,1,2-.6c1.09,0,2.59.45,2.59,2.19v1h-1.86v-.73c0-.49,0-1-.82-1-.5,0-.86.19-.86,1s.19,1,.59,1.31l1.84,1.25a3.51,3.51,0,0,1,1,1,2.66,2.66,0,0,1,.27,1.6,3.57,3.57,0,0,1-.33,2,2.74,2.74,0,0,1-2.42,1c-1.6,0-2.82-.6-2.82-2.32Z" transform="translate(-59.95 -209.97)" fill="#231f20"/><path d="M338.34,279.45h1.9v4l2-4h1.91l-2.3,4.39,2.37,5.77h-2l-2-5v5h-1.9Z" transform="translate(-59.95 -209.97)" fill="#231f20"/><path d="M345.36,279.45h1.86v10.16h-1.86Z" transform="translate(-59.95 -209.97)" fill="#231f20"/><path d="M353.08,279.45h2.14l1.9,10.16h-1.9L355,288h-1.73l-.27,1.65H351.1Zm.4,6.94h1.29l-.62-4.36Z" transform="translate(-59.95 -209.97)" fill="#231f20"/><path d="M358,286h1.87v1.18c0,.59,0,1.18.91,1.18s.92-.6.92-1.51a1.33,1.33,0,0,0-.63-1.35l-1.78-1.19a2.52,2.52,0,0,1-1.21-2.39,2.47,2.47,0,0,1,.73-2.1,3.18,3.18,0,0,1,2-.6c1.09,0,2.59.45,2.59,2.19v1h-1.86v-.73c0-.49,0-1-.82-1-.5,0-.86.19-.86,1s.19,1,.59,1.31l1.84,1.25a3.51,3.51,0,0,1,1,1,2.66,2.66,0,0,1,.27,1.6,3.56,3.56,0,0,1-.33,2,2.74,2.74,0,0,1-2.42,1c-1.6,0-2.82-.6-2.82-2.32Z" transform="translate(-59.95 -209.97)" fill="#231f20"/><path d="M364.71,286h1.87v1.18c0,.59,0,1.18.91,1.18s.92-.6.92-1.51a1.33,1.33,0,0,0-.63-1.35L366,284.33a2.52,2.52,0,0,1-1.21-2.39,2.47,2.47,0,0,1,.73-2.1,3.18,3.18,0,0,1,2-.6c1.09,0,2.59.45,2.59,2.19v1h-1.86v-.73c0-.49,0-1-.82-1-.5,0-.86.19-.86,1s.19,1,.59,1.31l1.84,1.25a3.51,3.51,0,0,1,1,1,2.66,2.66,0,0,1,.27,1.6,3.56,3.56,0,0,1-.33,2,2.74,2.74,0,0,1-2.42,1c-1.6,0-2.82-.6-2.82-2.32Z" transform="translate(-59.95 -209.97)" fill="#231f20"/><path d="M377.38,287.44a2.17,2.17,0,0,1-.55,1.67,3,3,0,0,1-2.23.72c-2.29,0-2.85-1.09-2.85-2.39v-5.68a2.46,2.46,0,0,1,.53-1.74,3.11,3.11,0,0,1,2.3-.78,3.31,3.31,0,0,1,2.12.63,2.19,2.19,0,0,1,.68,1.93Zm-1.88-5.51c0-.53,0-1.27-.91-1.27s-1,.78-1,1.34v5.12c0,.58,0,1.24,1,1.24s.92-.7.92-1.19Z" transform="translate(-59.95 -209.97)" fill="#231f20"/><path d="M382.72,283.16v-1.3c0-.76-.13-1.19-.95-1.19s-.86.65-.86,1.11v5.44c0,.6.1,1.15.94,1.15s.88-.63.88-1.25V285.8h1.86v1.44c0,.82,0,2.59-2.76,2.59a3.84,3.84,0,0,1-2-.49,2,2,0,0,1-.81-1.89v-5.52a2.5,2.5,0,0,1,.5-1.89,3.1,3.1,0,0,1,2.27-.81c2.76,0,2.76,1.64,2.76,2.36v1.57Z" transform="translate(-59.95 -209.97)" fill="#231f20"/><path d="M386.08,279.45h1.86v10.16h-1.86Z" transform="translate(-59.95 -209.97)" fill="#231f20"/><path d="M390.93,279.45h2.14l1.9,10.16h-1.9l-.25-1.65H391.1l-.27,1.65H389Zm.4,6.94h1.29L392,282Z" transform="translate(-59.95 -209.97)" fill="#231f20"/><path d="M394.4,279.45H400v1.47h-1.87v8.69h-1.89v-8.69H394.4Z" transform="translate(-59.95 -209.97)" fill="#231f20"/><path d="M400.94,279.45h1.86v10.16h-1.86Z" transform="translate(-59.95 -209.97)" fill="#231f20"/><path d="M410.14,287.44a2.18,2.18,0,0,1-.55,1.67,3,3,0,0,1-2.23.72c-2.29,0-2.85-1.09-2.85-2.39v-5.68A2.45,2.45,0,0,1,405,280a3.1,3.1,0,0,1,2.3-.78,3.31,3.31,0,0,1,2.12.63,2.19,2.19,0,0,1,.68,1.93Zm-1.88-5.51c0-.53,0-1.27-.91-1.27s-1,.78-1,1.34v5.12c0,.58,0,1.24,1,1.24s.92-.7.92-1.19Z" transform="translate(-59.95 -209.97)" fill="#231f20"/><path d="M417.34,289.61H415L413.17,282l.17,7.61h-1.75V279.45H414l1.83,7.45-.19-7.45h1.71Z" transform="translate(-59.95 -209.97)" fill="#231f20"/></svg>