<svg id="781f5c0b-3c81-439b-ae31-032c3fcca5e2" data-name="41eb595c-6d5d-447a-a7b0-b6d260fda23e" xmlns="http://www.w3.org/2000/svg" viewBox="0 0 378.97 79.85"><title>usasa-logo-primary-white</title><path d="M6.6,70.45H8.49V78c0,.55,0,1.22.88,1.22s.86-.66.86-1.24V70.45h1.88v7.87c0,1.32-.56,2.5-2.79,2.5-1.76,0-2.72-.88-2.72-2.55Z" transform="translate(0.31 -0.97)" fill="#fff"/><path d="M19.45,80.61H17.09L15.28,73l.17,7.61H13.7V70.45h2.4l1.83,7.45-.19-7.45h1.71Z" transform="translate(0.31 -0.97)" fill="#fff"/><path d="M21.07,70.45h1.86V80.61H21.07Z" transform="translate(0.31 -0.97)" fill="#fff"/><path d="M23.82,70.45h5.63v1.47H27.57v8.69H25.69V71.92H23.82Z" transform="translate(0.31 -0.97)" fill="#fff"/><path d="M30.35,70.44h4.92V72h-3v2.39h2.86v1.54H32.22V79H35.4v1.57h-5Z" transform="translate(0.31 -0.97)" fill="#fff"/><path d="M36.82,70.45h3a2.46,2.46,0,0,1,2,.63,2.69,2.69,0,0,1,.61,2v4.75c0,1.41-.22,2.73-2.58,2.73h-3Zm1.87,8.68a7.8,7.8,0,0,0,1.18,0c.68-.1.68-.69.68-1.06V73c0-.91-.3-1-1.12-1h-.73Z" transform="translate(0.31 -0.97)" fill="#fff"/><path d="M46.85,77h1.87v1.18c0,.59,0,1.18.91,1.18s.92-.61.92-1.51a1.33,1.33,0,0,0-.63-1.35l-1.78-1.19a2.53,2.53,0,0,1-1.21-2.39,2.47,2.47,0,0,1,.73-2.1,3.19,3.19,0,0,1,2-.6c1.09,0,2.59.45,2.59,2.19v1H50.43V72.7c0-.49,0-1-.82-1-.5,0-.86.19-.86,1s.19,1,.59,1.31l1.84,1.25a3.53,3.53,0,0,1,1,1,2.67,2.67,0,0,1,.27,1.6,3.57,3.57,0,0,1-.33,2,2.74,2.74,0,0,1-2.42,1c-1.6,0-2.82-.6-2.82-2.32Z" transform="translate(0.31 -0.97)" fill="#fff"/><path d="M52.78,70.45H58.4v1.47H56.53v8.69H54.65V71.92H52.78Z" transform="translate(0.31 -0.97)" fill="#fff"/><path d="M60.41,70.45h2.14l1.9,10.16h-1.9L62.3,79H60.58l-.27,1.65H58.43Zm.4,6.93H62.1L61.49,73Z" transform="translate(0.31 -0.97)" fill="#fff"/><path d="M64.16,70.45h5.63v1.47H67.92v8.69H66V71.92H64.16Z" transform="translate(0.31 -0.97)" fill="#fff"/><path d="M70.41,70.44h4.92V72h-3v2.39h2.86v1.54H72.28V79h3.18v1.57h-5Z" transform="translate(0.31 -0.97)" fill="#fff"/><path d="M76.61,77h1.87v1.18c0,.59,0,1.18.91,1.18s.92-.61.92-1.51a1.33,1.33,0,0,0-.63-1.35l-1.79-1.19a2.53,2.53,0,0,1-1.21-2.39,2.47,2.47,0,0,1,.73-2.1,3.19,3.19,0,0,1,2-.6c1.09,0,2.59.45,2.59,2.19v1H80.2V72.7c0-.49,0-1-.82-1-.5,0-.86.19-.86,1s.19,1,.59,1.31l1.84,1.25a3.51,3.51,0,0,1,1,1,2.66,2.66,0,0,1,.27,1.6,3.56,3.56,0,0,1-.33,2,2.74,2.74,0,0,1-2.42,1c-1.6,0-2.82-.6-2.82-2.32Z" transform="translate(0.31 -0.97)" fill="#fff"/><path d="M91.94,78.44a2.18,2.18,0,0,1-.55,1.67,3,3,0,0,1-2.23.72c-2.29,0-2.85-1.09-2.85-2.39V72.75A2.45,2.45,0,0,1,86.85,71a3.1,3.1,0,0,1,2.3-.78,3.3,3.3,0,0,1,2.11.63,2.19,2.19,0,0,1,.68,1.93Zm-1.89-5.51c0-.53,0-1.27-.91-1.27s-1,.78-1,1.34v5.12c0,.58,0,1.24.95,1.24s.92-.71.92-1.19Z" transform="translate(0.31 -0.97)" fill="#fff"/><path d="M93.67,70.45h5V72H95.55v2.55h2.91v1.51H95.55v4.53H93.67Z" transform="translate(0.31 -0.97)" fill="#fff"/><path d="M103.5,70.45h2.14l1.9,10.16h-1.9L105.4,79h-1.73l-.27,1.65h-1.87Zm.4,6.93h1.29L104.58,73Z" transform="translate(0.31 -0.97)" fill="#fff"/><path d="M108.55,70.45h3l1.21,7.11L114,70.45h3V80.61h-1.86l.17-8.81-1.64,8.81h-1.76l-1.67-8.81.14,8.81h-1.84Z" transform="translate(0.31 -0.97)" fill="#fff"/><path d="M118.63,70.44h4.92V72h-3v2.39h2.86v1.54H120.5V79h3.18v1.57h-5Z" transform="translate(0.31 -0.97)" fill="#fff"/><path d="M125.09,70.44h3.74c1.83,0,1.83,1.22,1.83,2.16v1.09c0,1.3-.4,1.53-1.31,1.73a1.63,1.63,0,0,1,1.38,1.75v2.07a1.67,1.67,0,0,0,.43,1.37H129.1a2.37,2.37,0,0,1-.27-1.12V77.31c0-.69,0-1.18-1-1.18H127v4.47h-1.87ZM127,74.68h1c.85,0,.86-.46.86-1v-1c0-.84-.45-.84-.86-.84h-1Z" transform="translate(0.31 -0.97)" fill="#fff"/><path d="M132.36,70.45h1.86V80.61h-1.86Z" transform="translate(0.31 -0.97)" fill="#fff"/><path d="M139.64,74.16V72.87c0-.76-.13-1.19-1-1.19s-.86.65-.86,1.11v5.44c0,.6.1,1.15.94,1.15s.88-.63.88-1.25V76.8h1.86v1.44c0,.82,0,2.59-2.76,2.59a3.84,3.84,0,0,1-2-.49,2,2,0,0,1-.81-1.89V72.93a2.5,2.5,0,0,1,.5-1.89,3.1,3.1,0,0,1,2.27-.8c2.76,0,2.76,1.64,2.76,2.36v1.57Z" transform="translate(0.31 -0.97)" fill="#fff"/><path d="M144.46,70.45h2.14l1.9,10.16h-1.9L146.36,79h-1.73l-.27,1.65h-1.87Zm.4,6.93h1.29L145.54,73Z" transform="translate(0.31 -0.97)" fill="#fff"/><path d="M152.49,77h1.87v1.18c0,.59,0,1.18.91,1.18s.92-.61.92-1.51a1.33,1.33,0,0,0-.63-1.35l-1.78-1.19a2.53,2.53,0,0,1-1.21-2.39,2.47,2.47,0,0,1,.73-2.1,3.18,3.18,0,0,1,2-.6c1.09,0,2.59.45,2.59,2.19v1h-1.86V72.7c0-.49,0-1-.82-1-.5,0-.86.19-.86,1s.19,1,.59,1.31l1.84,1.25a3.52,3.52,0,0,1,1,1,2.66,2.66,0,0,1,.27,1.6,3.56,3.56,0,0,1-.33,2,2.74,2.74,0,0,1-2.42,1c-1.6,0-2.82-.6-2.82-2.32Z" transform="translate(0.31 -0.97)" fill="#fff"/><path d="M165.1,80.61h-2.36L160.93,73l.17,7.61h-1.75V70.45h2.4l1.83,7.45-.19-7.45h1.71Z" transform="translate(0.31 -0.97)" fill="#fff"/><path d="M172.46,78.44a2.18,2.18,0,0,1-.55,1.67,3,3,0,0,1-2.23.72c-2.29,0-2.85-1.09-2.85-2.39V72.75a2.45,2.45,0,0,1,.53-1.74,3.1,3.1,0,0,1,2.3-.78,3.3,3.3,0,0,1,2.11.63,2.19,2.19,0,0,1,.68,1.93Zm-1.89-5.51c0-.53,0-1.27-.91-1.27s-1,.78-1,1.34v5.12c0,.58,0,1.24,1,1.24s.92-.71.92-1.19Z" transform="translate(0.31 -0.97)" fill="#fff"/><path d="M173.28,70.45h1.93l1,7.66,1.11-7.66h1.77l1.06,7.66,1.07-7.66h1.9l-2,10.16h-2l-1-6.92-1.11,6.92h-2Z" transform="translate(0.31 -0.97)" fill="#fff"/><path d="M184.17,70.45h3.15a2.67,2.67,0,0,1,1.55.3,1.87,1.87,0,0,1,.73,1.77v.91c0,1.32-.47,1.57-1.19,1.71,1.21.23,1.3.76,1.3,1.86v1.44a2,2,0,0,1-.69,1.86,2.92,2.92,0,0,1-1.64.32h-3.21Zm1.87,4a9.11,9.11,0,0,0,1.21,0c.37-.09.5-.39.5-.91,0-.95,0-1-.07-1.21-.12-.33-.42-.42-.89-.42H186Zm0,4.68h.78c.78,0,1.07-.09,1.07-1V76.93c0-.83-.25-1-1-1H186Z" transform="translate(0.31 -0.97)" fill="#fff"/><path d="M196.84,78.44a2.18,2.18,0,0,1-.55,1.67,3,3,0,0,1-2.23.72c-2.29,0-2.85-1.09-2.85-2.39V72.75a2.45,2.45,0,0,1,.53-1.74,3.1,3.1,0,0,1,2.3-.78,3.3,3.3,0,0,1,2.11.63,2.2,2.2,0,0,1,.68,1.93ZM195,72.93c0-.53,0-1.27-.91-1.27s-1,.78-1,1.34v5.12c0,.58,0,1.24.95,1.24s.92-.71.92-1.19Z" transform="translate(0.31 -0.97)" fill="#fff"/><path d="M199.75,70.45h2.14l1.9,10.16h-1.9L201.64,79h-1.73l-.27,1.65h-1.87Zm.4,6.93h1.29L200.83,73Z" transform="translate(0.31 -0.97)" fill="#fff"/><path d="M204.8,70.44h3.74c1.83,0,1.83,1.22,1.83,2.16v1.09c0,1.3-.4,1.53-1.31,1.73a1.63,1.63,0,0,1,1.38,1.75v2.07a1.67,1.67,0,0,0,.43,1.37h-2.06a2.37,2.37,0,0,1-.27-1.12V77.31c0-.69,0-1.18-1-1.18h-.89v4.47H204.8Zm1.87,4.24h1c.85,0,.86-.46.86-1v-1c0-.84-.45-.84-.86-.84h-1Z" transform="translate(0.31 -0.97)" fill="#fff"/><path d="M212.07,70.45h3a2.46,2.46,0,0,1,2,.63,2.7,2.7,0,0,1,.6,2v4.75c0,1.41-.22,2.73-2.58,2.73h-3Zm1.87,8.68a7.81,7.81,0,0,0,1.18,0c.68-.1.68-.69.68-1.06V73c0-.91-.3-1-1.12-1h-.73Z" transform="translate(0.31 -0.97)" fill="#fff"/><path d="M223.38,70.45h2.14l1.9,10.16h-1.9L225.28,79h-1.73l-.27,1.65h-1.87Zm.4,6.93h1.3L224.46,73Z" transform="translate(0.31 -0.97)" fill="#fff"/><path d="M234.19,80.61h-2.36L230,73l.17,7.61h-1.75V70.45h2.4l1.83,7.45-.19-7.45h1.71Z" transform="translate(0.31 -0.97)" fill="#fff"/><path d="M235.8,70.45h3a2.46,2.46,0,0,1,2,.63,2.69,2.69,0,0,1,.61,2v4.75c0,1.41-.22,2.73-2.58,2.73h-3Zm1.87,8.68a7.79,7.79,0,0,0,1.18,0c.68-.1.68-.69.68-1.06V73c0-.91-.3-1-1.12-1h-.73Z" transform="translate(0.31 -0.97)" fill="#fff"/><path d="M245.72,70.45h5V72H247.6v2.55h2.91v1.51H247.6v4.53h-1.88Z" transform="translate(0.31 -0.97)" fill="#fff"/><path d="M251.87,70.44h3.74c1.83,0,1.83,1.22,1.83,2.16v1.09c0,1.3-.4,1.53-1.31,1.73a1.63,1.63,0,0,1,1.38,1.75v2.07a1.66,1.66,0,0,0,.43,1.37h-2.06a2.37,2.37,0,0,1-.27-1.12V77.31c0-.69,0-1.18-1-1.18h-.89v4.47h-1.87Zm1.87,4.24h1c.85,0,.86-.46.86-1v-1c0-.84-.45-.84-.86-.84h-1Z" transform="translate(0.31 -0.97)" fill="#fff"/><path d="M258.85,70.44h4.92V72h-3v2.39h2.86v1.54h-2.86V79h3.18v1.57h-5Z" transform="translate(0.31 -0.97)" fill="#fff"/><path d="M265.31,70.44h4.92V72h-3v2.39H270v1.54h-2.86V79h3.18v1.57h-5Z" transform="translate(0.31 -0.97)" fill="#fff"/><path d="M271.23,77h1.87v1.18c0,.59,0,1.18.91,1.18s.92-.61.92-1.51a1.33,1.33,0,0,0-.63-1.35l-1.78-1.19a2.53,2.53,0,0,1-1.21-2.39,2.47,2.47,0,0,1,.73-2.1,3.19,3.19,0,0,1,2-.6c1.09,0,2.59.45,2.59,2.19v1h-1.86V72.7c0-.49,0-1-.82-1-.5,0-.86.19-.86,1s.19,1,.59,1.31l1.84,1.25a3.52,3.52,0,0,1,1,1,2.67,2.67,0,0,1,.27,1.6,3.57,3.57,0,0,1-.33,2,2.74,2.74,0,0,1-2.42,1c-1.6,0-2.82-.6-2.82-2.32Z" transform="translate(0.31 -0.97)" fill="#fff"/><path d="M278.08,70.45H280v4l2-4h1.91l-2.3,4.39L284,80.61h-2l-2-5v5h-1.9Z" transform="translate(0.31 -0.97)" fill="#fff"/><path d="M285.1,70.45H287V80.61H285.1Z" transform="translate(0.31 -0.97)" fill="#fff"/><path d="M292.82,70.45H295l1.9,10.16H295L294.72,79H293l-.27,1.65h-1.87Zm.4,6.93h1.29L293.9,73Z" transform="translate(0.31 -0.97)" fill="#fff"/><path d="M297.7,77h1.87v1.18c0,.59,0,1.18.91,1.18s.92-.61.92-1.51a1.33,1.33,0,0,0-.63-1.35L299,75.33a2.53,2.53,0,0,1-1.21-2.39,2.47,2.47,0,0,1,.73-2.1,3.19,3.19,0,0,1,2-.6c1.09,0,2.59.45,2.59,2.19v1h-1.86V72.7c0-.49,0-1-.82-1-.5,0-.86.19-.86,1s.19,1,.59,1.31L302,75.23a3.52,3.52,0,0,1,1,1,2.67,2.67,0,0,1,.27,1.6,3.57,3.57,0,0,1-.33,2,2.74,2.74,0,0,1-2.42,1c-1.6,0-2.82-.6-2.82-2.32Z" transform="translate(0.31 -0.97)" fill="#fff"/><path d="M304.45,77h1.87v1.18c0,.59,0,1.18.91,1.18s.92-.61.92-1.51a1.33,1.33,0,0,0-.63-1.35l-1.78-1.19a2.53,2.53,0,0,1-1.21-2.39,2.47,2.47,0,0,1,.73-2.1,3.19,3.19,0,0,1,2-.6c1.09,0,2.59.45,2.59,2.19v1H308V72.7c0-.49,0-1-.82-1-.5,0-.86.19-.86,1s.19,1,.59,1.31l1.84,1.25a3.51,3.51,0,0,1,1,1,2.66,2.66,0,0,1,.27,1.6,3.57,3.57,0,0,1-.33,2,2.74,2.74,0,0,1-2.42,1c-1.6,0-2.82-.6-2.82-2.32Z" transform="translate(0.31 -0.97)" fill="#fff"/><path d="M317.13,78.44a2.18,2.18,0,0,1-.55,1.67,3,3,0,0,1-2.23.72c-2.29,0-2.85-1.09-2.85-2.39V72.75A2.45,2.45,0,0,1,312,71a3.1,3.1,0,0,1,2.3-.78,3.31,3.31,0,0,1,2.12.63,2.2,2.2,0,0,1,.68,1.93Zm-1.88-5.51c0-.53,0-1.27-.91-1.27s-1,.78-1,1.34v5.12c0,.58,0,1.24,1,1.24s.92-.71.92-1.19Z" transform="translate(0.31 -0.97)" fill="#fff"/><path d="M322.46,74.16V72.87c0-.76-.13-1.19-1-1.19s-.86.65-.86,1.11v5.44c0,.6.1,1.15.93,1.15s.88-.63.88-1.25V76.8h1.86v1.44c0,.82,0,2.59-2.76,2.59a3.84,3.84,0,0,1-2-.49,2,2,0,0,1-.81-1.89V72.93a2.49,2.49,0,0,1,.5-1.89,3.1,3.1,0,0,1,2.27-.8c2.76,0,2.76,1.64,2.76,2.36v1.57Z" transform="translate(0.31 -0.97)" fill="#fff"/><path d="M325.82,70.45h1.86V80.61h-1.86Z" transform="translate(0.31 -0.97)" fill="#fff"/><path d="M330.67,70.45h2.14l1.9,10.16h-1.9L332.57,79h-1.73l-.27,1.65H328.7Zm.4,6.93h1.3L331.75,73Z" transform="translate(0.31 -0.97)" fill="#fff"/><path d="M334.14,70.45h5.63v1.47H337.9v8.69H336V71.92h-1.87Z" transform="translate(0.31 -0.97)" fill="#fff"/><path d="M340.68,70.45h1.86V80.61h-1.86Z" transform="translate(0.31 -0.97)" fill="#fff"/><path d="M349.88,78.44a2.18,2.18,0,0,1-.55,1.67,3,3,0,0,1-2.23.72c-2.29,0-2.85-1.09-2.85-2.39V72.75a2.45,2.45,0,0,1,.53-1.74,3.1,3.1,0,0,1,2.3-.78,3.3,3.3,0,0,1,2.12.63,2.2,2.2,0,0,1,.68,1.93ZM348,72.93c0-.53,0-1.27-.91-1.27s-1,.78-1,1.34v5.12c0,.58,0,1.24,1,1.24s.92-.71.92-1.19Z" transform="translate(0.31 -0.97)" fill="#fff"/><path d="M357.08,80.61h-2.36L352.91,73l.17,7.61h-1.75V70.45h2.4l1.83,7.45-.19-7.45h1.71Z" transform="translate(0.31 -0.97)" fill="#fff"/><path d="M317.61,63.88c-18.88,0-25.62-2.78-28.71-5.9l-2.46,5.9H174.36c-17.81,0-24.82-2.47-28.15-5.37L144,63.88H31.15c-22,0-27.53-3.78-30-7.48a8.08,8.08,0,0,1-.9-7.57L19.95,1H61.37L58.62,7.65H204.14c14.75,0,23.4,1.6,27.82,5.28l2.2-5.28H347.4c17.4,0,26.31,2.23,29.79,7.46a8.09,8.09,0,0,1,.9,7.58L360.94,63.88Z" transform="translate(0.31 -0.97)" fill="#fff"/><path d="M6.18,51.3,24.25,7.39H51.78L33.72,51.3h6.93L56.17,14.06H83.51L68,51.3s-2.57,6.16-29.91,6.16H31.15c-27.53,0-25-6.16-25-6.16m150.2-24.82,5.17-12.41H90.63L82.89,32.64s-2.6,6.25,24.93,6.25h12.27L114.92,51.3H108l2.6-6.25H77.75l-3.67,8.81s-.81,1.91-6.22,3.6H139.7l7.74-18.57s2.61-6.25-24.74-6.25h-6.93l5.17-12.41h6.93l-2.61,6.25Zm47.77-12.41c27.34,0,24.78,6.16,24.78,6.16L213.41,57.46h-39c-27.54,0-25-6.16-25-6.16l7.78-18.66s2.57-6.16,30.1-6.16H199l2.61-6.25-8.08,0c-24.21,0-29.17,5.18-30,6.43h-.06l5.27-12.59h35.44M196.4,32.64h-6.93L181.7,51.3h6.93Z" transform="translate(0.31 -0.97)" fill="#cf0a2c"/><path d="M267.73,26.47l2.6-6.25h-6.93l-5.17,12.41h6.93c27.34,0,24.74,6.25,24.74,6.25l-7.74,18.57H220.35L225.53,45h27.54l-2.61,6.25h6.93l5.17-12.41h-6.93c-27.54,0-24.93-6.25-24.93-6.25l7.74-18.57h66.33l-5.17,12.41ZM347.4,14.06c27.34,0,24.78,6.16,24.78,6.16L356.66,57.46h-39c-27.54,0-25-6.16-25-6.16l7.78-18.66s2.56-6.16,30.1-6.16h11.7l2.6-6.25-8.08,0c-24.21,0-29.17,5.18-30,6.43h-.06L312,14.06H347.4m-7.07,18.57H333.4L325.62,51.3h6.93Z" transform="translate(0.31 -0.97)" fill="#1d4f90"/></svg>